M48
; DRILL file {KiCad (6.0.5-0)} date 2022 September 20, Tuesday 15:20:54
; FORMAT={-:-/ absolute / inch / decimal}
; #@! TF.CreationDate,2022-09-20T15:20:54+05:30
; #@! TF.GenerationSoftware,Kicad,Pcbnew,(6.0.5-0)
; #@! TF.FileFunction,Plated,1,2,PTH
FMAT,2
INCH
; #@! TA.AperFunction,Plated,PTH,ViaDrill
T1C0.0157
; #@! TA.AperFunction,Plated,PTH,ComponentDrill
T2C0.0315
; #@! TA.AperFunction,Plated,PTH,ComponentDrill
T3C0.0335
; #@! TA.AperFunction,Plated,PTH,ComponentDrill
T4C0.0354
; #@! TA.AperFunction,Plated,PTH,ComponentDrill
T5C0.0394
; #@! TA.AperFunction,Plated,PTH,ComponentDrill
T6C0.0409
; #@! TA.AperFunction,Plated,PTH,ComponentDrill
T7C0.0433
; #@! TA.AperFunction,Plated,PTH,ComponentDrill
T8C0.0512
; #@! TA.AperFunction,Plated,PTH,ComponentDrill
T9C0.0580
; #@! TA.AperFunction,Plated,PTH,ComponentDrill
T10C0.0630
; #@! TA.AperFunction,Plated,PTH,ComponentDrill
T11C0.1051
%
G90
G05
T1
X1.67Y-1.66
X1.7Y-1.91
X1.7Y-2.06
X1.82Y-1.78
X1.87Y-2.26
X1.88Y-2.06
X1.88Y-2.9
X1.91Y-2.45
X1.94Y-1.56
X1.95Y-3.01
X1.98Y-1.71
X2.05Y-2.61
X2.1Y-2.22
X2.1Y-2.43
X2.1Y-2.98
X2.11Y-1.89
X2.17Y-2.57
X2.21Y-1.93
X2.25Y-2.3
X2.25Y-3.06
X2.28Y-2.78
X2.31Y-1.69
X2.35Y-3.1
X2.53Y-2.63
X2.54Y-2.33
X2.55Y-1.8
X2.58Y-1.56
X2.58Y-2.03
X2.58Y-4.27
X2.58Y-4.47
X2.59Y-4.93
X2.6Y-3.7
X2.6031Y-2.6551
X2.63Y-3.92
X2.66Y-4.11
X2.74Y-2.45
X2.75Y-2.3
X2.75Y-3.65
X2.76Y-2.72
X2.78Y-1.63
X2.78Y-2.13
X2.78Y-2.89
X2.83Y-3.07
X2.83Y-4.69
X2.85Y-1.79
X2.85Y-3.65
X2.85Y-4.13
X2.86Y-2.45
X2.87Y-1.56
X2.88Y-3.69
X2.89Y-4.97
X2.9Y-2.73
X2.91Y-2.89
X2.91Y-3.13
X2.92Y-3.96
X2.93Y-2.24
X2.94Y-4.58
X2.97Y-4.73
X3.0Y-4.45
X3.04Y-1.86
X3.07Y-3.65
X3.1Y-1.59
X3.11Y-3.88
X3.12Y-3.15
X3.14Y-2.38
X3.1645Y-2.5116
X3.21Y-5.0
X3.22Y-1.84
X3.26Y-1.59
X3.2642Y-2.5116
X3.29Y-4.79
X3.3Y-4.53
X3.33Y-3.81
X3.34Y-4.3
X3.3498Y-3.1171
X3.35Y-4.69
X3.38Y-3.7
X3.39Y-3.81
X3.4Y-1.99
X3.4Y-2.18
X3.44Y-3.18
X3.44Y-4.5
X3.45Y-3.7
X3.46Y-1.89
X3.46Y-3.05
X3.46Y-4.94
X3.47Y-1.57
X3.5Y-3.7
X3.51Y-4.63
X3.55Y-4.44
X3.55Y-4.71
X3.56Y-3.66
X3.57Y-1.86
X3.57Y-2.41
X3.59Y-2.17
X3.61Y-4.09
X3.61Y-4.62
X3.62Y-3.18
X3.6209Y-2.9996
X3.65Y-1.75
X3.65Y-3.8
X3.67Y-3.92
X3.67Y-4.06
X3.69Y-4.16
X3.72Y-1.67
X3.76Y-4.93
X3.77Y-2.56
X3.81Y-2.41
X3.83Y-3.11
X3.85Y-2.1
X3.86Y-2.6
X3.87Y-3.18
X3.88Y-4.61
X3.9Y-3.85
X3.92Y-4.35
X3.94Y-1.75
X3.96Y-3.73
X3.97Y-1.88
X3.97Y-3.91
X4.01Y-2.18
X4.01Y-4.28
X4.02Y-4.73
X4.03Y-3.78
X4.08Y-1.87
X4.12Y-2.54
X4.12Y-4.6
X4.13Y-2.09
X4.15Y-2.83
X4.15Y-3.1
X4.17Y-2.44
X4.21Y-2.78
X4.25Y-3.15
X4.3Y-3.65
X4.3Y-3.7
X4.3007Y-3.7997
X4.3059Y-2.9996
X4.34Y-4.74
X4.35Y-2.4
X4.36Y-3.07
X4.38Y-2.03
X4.38Y-4.45
X4.39Y-3.72
X4.4Y-3.8
X4.4Y-4.22
X4.4Y-4.9
X4.43Y-2.16
X4.4311Y-2.6366
X4.44Y-3.85
X4.44Y-4.03
X4.45Y-3.7
X4.51Y-3.91
X4.52Y-2.04
X4.54Y-1.63
X4.56Y-2.31
X4.58Y-3.14
X4.59Y-1.7
X4.59Y-2.84
X4.6Y-3.06
X4.6Y-3.65
X4.61Y-1.62
X4.61Y-4.31
X4.62Y-3.89
X4.66Y-2.69
X4.67Y-1.95
X4.67Y-4.68
X4.68Y-1.57
X4.7Y-2.89
X4.71Y-1.63
X4.72Y-3.11
X4.72Y-4.18
X4.75Y-3.94
X4.78Y-4.94
X4.79Y-3.87
X4.79Y-4.4
X4.81Y-2.7
X4.82Y-3.73
X4.82Y-4.64
X4.85Y-4.13
X4.9Y-4.11
X4.91Y-1.58
X4.93Y-2.17
X4.95Y-1.64
X5.01Y-3.15
X5.03Y-2.22
X5.04Y-1.59
X5.04Y-2.38
X5.06Y-3.99
X5.06Y-4.96
X5.07Y-3.82
X5.11Y-4.35
X5.13Y-2.08
X5.13Y-4.61
X5.15Y-3.04
X5.15Y-3.65
X5.16Y-4.84
X5.18Y-2.31
X5.2Y-4.52
X5.24Y-2.19
X5.25Y-1.64
X5.25Y-1.8
X5.25Y-3.7
X5.31Y-3.67
X5.32Y-1.89
X5.32Y-3.77
X5.39Y-2.02
X5.39Y-2.17
X5.39Y-2.37
X5.4Y-3.8
X5.41Y-1.83
X5.42Y-1.71
X5.42Y-3.75
X5.43Y-3.66
X5.43Y-4.62
X5.43Y-4.86
X5.46Y-4.39
X5.47Y-4.26
X5.48Y-1.81
X5.5Y-3.65
X5.5Y-3.75
X5.52Y-4.15
X5.52Y-4.74
X5.54Y-1.94
X5.54Y-2.24
X5.54Y-4.91
X5.56Y-1.88
X5.63Y-2.42
X5.64Y-1.72
X5.67Y-1.57
X5.68Y-3.54
X5.71Y-3.21
X5.74Y-2.27
X5.74Y-3.36
X5.74Y-4.34
X5.79Y-2.1
X5.79Y-3.92
X5.8Y-1.56
X5.8Y-4.18
X5.81Y-1.82
X5.81Y-3.52
X5.83Y-3.79
X5.85Y-4.04
X5.86Y-3.33
X5.87Y-3.64
X5.88Y-4.65
X5.9Y-3.17
X5.96Y-2.73
X5.96Y-4.67
X5.98Y-2.15
X6.01Y-2.38
X6.05Y-2.97
X6.07Y-3.87
X6.07Y-4.39
X6.08Y-4.88
X6.09Y-4.13
X6.11Y-3.35
X6.11Y-3.63
T2
X2.6917Y-1.5785
X2.6917Y-1.7753
X3.3554Y-4.0
X3.5523Y-4.0
X5.2054Y-4.1
X5.4023Y-4.1
X5.5142Y-1.7
X5.8142Y-1.7
T3
X4.8177Y-1.6413
X4.8177Y-1.7791
T4
X5.9392Y-1.7
X6.0392Y-1.7
T5
X3.1498Y-2.9207
X3.1998Y-2.7207
X3.2498Y-2.9207
X3.2998Y-2.7207
X3.3498Y-2.9207
X3.3998Y-2.7207
X3.4498Y-2.9207
X3.4998Y-2.7207
X3.5498Y-2.9207
X3.5998Y-2.7207
X3.6498Y-2.9207
X3.6998Y-2.7207
X3.7498Y-2.9207
X3.7998Y-2.7207
X3.8498Y-2.9207
X4.9998Y-2.9207
X5.0498Y-2.7207
X5.0998Y-2.9207
X5.1498Y-2.7207
X5.1998Y-2.9207
X5.2498Y-2.7207
X5.2998Y-2.9207
X5.3498Y-2.7207
X5.3998Y-2.9207
X5.4498Y-2.7207
X5.4998Y-2.9207
X5.5498Y-2.7207
X5.5998Y-2.9207
X5.6498Y-2.7207
X5.6998Y-2.9207
T6
X1.55Y-1.55
X1.55Y-1.65
X1.55Y-1.75
X1.55Y-1.85
X1.55Y-1.95
X1.55Y-2.05
X1.55Y-2.15
X1.55Y-2.25
X1.55Y-2.35
X1.55Y-2.45
X1.55Y-2.55
X1.55Y-2.65
X1.55Y-2.75
X1.55Y-2.85
X1.55Y-2.95
X1.55Y-3.05
X1.55Y-3.15
X1.55Y-3.25
X1.55Y-3.35
X2.45Y-1.55
X2.45Y-1.65
X2.45Y-1.75
X2.45Y-1.85
X2.45Y-1.95
X2.45Y-2.05
X2.45Y-2.15
X2.45Y-2.25
X2.45Y-2.35
X2.45Y-2.45
X2.45Y-2.55
X2.45Y-2.65
X2.45Y-2.75
X2.45Y-2.85
X2.45Y-2.95
X2.45Y-3.05
X2.45Y-3.15
X2.45Y-3.25
X2.45Y-3.35
T7
X2.75Y-3.75
X2.75Y-4.0
X2.75Y-4.25
X2.75Y-4.5
X3.15Y-3.75
X3.15Y-4.0
X3.15Y-4.25
X3.15Y-4.5
X3.8Y-3.75
X3.8Y-4.0
X3.8Y-4.25
X3.8Y-4.5
X4.2Y-3.75
X4.2Y-4.0
X4.2Y-4.25
X4.2Y-4.5
X4.55Y-3.75
X4.55Y-4.0
X4.55Y-4.25
X4.55Y-4.5
X4.95Y-3.75
X4.95Y-4.0
X4.95Y-4.25
X4.95Y-4.5
X5.65Y-3.75
X5.65Y-4.0
X5.65Y-4.25
X5.65Y-4.5
X6.05Y-3.75
X6.05Y-4.0
X6.05Y-4.25
X6.05Y-4.5
T8
X2.8498Y-4.862
X3.0498Y-4.862
X3.8998Y-4.862
X4.0998Y-4.862
X4.6498Y-4.862
X4.8498Y-4.862
X5.1211Y-1.7124
X5.3211Y-1.7124
X5.7498Y-4.862
X5.9498Y-4.862
T9
X4.2598Y-1.8567
X4.3268Y-1.6807
X4.3938Y-1.8567
X4.4608Y-1.6807
X4.5278Y-1.8567
T10
X3.4941Y-1.7299
X4.0941Y-1.7299
T11
X2.9791Y-2.4484
X3.9791Y-2.4484
X4.8197Y-2.4484
X5.8197Y-2.4484
T0
M30
