G04 #@! TF.GenerationSoftware,KiCad,Pcbnew,(6.0.5-0)*
G04 #@! TF.CreationDate,2022-09-20T15:19:48+05:30*
G04 #@! TF.ProjectId,FitBot,46697442-6f74-42e6-9b69-6361645f7063,v01*
G04 #@! TF.SameCoordinates,Original*
G04 #@! TF.FileFunction,Legend,Top*
G04 #@! TF.FilePolarity,Positive*
%FSLAX46Y46*%
G04 Gerber Fmt 4.6, Leading zero omitted, Abs format (unit mm)*
G04 Created by KiCad (PCBNEW (6.0.5-0)) date 2022-09-20 15:19:48*
%MOMM*%
%LPD*%
G01*
G04 APERTURE LIST*
%ADD10C,0.150000*%
%ADD11C,0.098425*%
%ADD12C,0.203200*%
%ADD13C,1.427832*%
%ADD14C,0.120000*%
%ADD15C,0.127000*%
%ADD16C,0.200000*%
G04 APERTURE END LIST*
D10*
G04 #@! TO.C,U2*
X33996380Y-61721904D02*
X34805904Y-61721904D01*
X34901142Y-61674285D01*
X34948761Y-61626666D01*
X34996380Y-61531428D01*
X34996380Y-61340952D01*
X34948761Y-61245714D01*
X34901142Y-61198095D01*
X34805904Y-61150476D01*
X33996380Y-61150476D01*
X34091619Y-60721904D02*
X34044000Y-60674285D01*
X33996380Y-60579047D01*
X33996380Y-60340952D01*
X34044000Y-60245714D01*
X34091619Y-60198095D01*
X34186857Y-60150476D01*
X34282095Y-60150476D01*
X34424952Y-60198095D01*
X34996380Y-60769523D01*
X34996380Y-60150476D01*
G04 #@! TO.C,D16*
X147375714Y-98172380D02*
X147375714Y-97172380D01*
X147613809Y-97172380D01*
X147756666Y-97220000D01*
X147851904Y-97315238D01*
X147899523Y-97410476D01*
X147947142Y-97600952D01*
X147947142Y-97743809D01*
X147899523Y-97934285D01*
X147851904Y-98029523D01*
X147756666Y-98124761D01*
X147613809Y-98172380D01*
X147375714Y-98172380D01*
X148899523Y-98172380D02*
X148328095Y-98172380D01*
X148613809Y-98172380D02*
X148613809Y-97172380D01*
X148518571Y-97315238D01*
X148423333Y-97410476D01*
X148328095Y-97458095D01*
X149756666Y-97172380D02*
X149566190Y-97172380D01*
X149470952Y-97220000D01*
X149423333Y-97267619D01*
X149328095Y-97410476D01*
X149280476Y-97600952D01*
X149280476Y-97981904D01*
X149328095Y-98077142D01*
X149375714Y-98124761D01*
X149470952Y-98172380D01*
X149661428Y-98172380D01*
X149756666Y-98124761D01*
X149804285Y-98077142D01*
X149851904Y-97981904D01*
X149851904Y-97743809D01*
X149804285Y-97648571D01*
X149756666Y-97600952D01*
X149661428Y-97553333D01*
X149470952Y-97553333D01*
X149375714Y-97600952D01*
X149328095Y-97648571D01*
X149280476Y-97743809D01*
G04 #@! TO.C,J3*
X108886666Y-121372380D02*
X108886666Y-122086666D01*
X108839047Y-122229523D01*
X108743809Y-122324761D01*
X108600952Y-122372380D01*
X108505714Y-122372380D01*
X109267619Y-121372380D02*
X109886666Y-121372380D01*
X109553333Y-121753333D01*
X109696190Y-121753333D01*
X109791428Y-121800952D01*
X109839047Y-121848571D01*
X109886666Y-121943809D01*
X109886666Y-122181904D01*
X109839047Y-122277142D01*
X109791428Y-122324761D01*
X109696190Y-122372380D01*
X109410476Y-122372380D01*
X109315238Y-122324761D01*
X109267619Y-122277142D01*
G04 #@! TO.C,U3*
X135123095Y-62937380D02*
X135123095Y-63746904D01*
X135170714Y-63842142D01*
X135218333Y-63889761D01*
X135313571Y-63937380D01*
X135504047Y-63937380D01*
X135599285Y-63889761D01*
X135646904Y-63842142D01*
X135694523Y-63746904D01*
X135694523Y-62937380D01*
X136075476Y-62937380D02*
X136694523Y-62937380D01*
X136361190Y-63318333D01*
X136504047Y-63318333D01*
X136599285Y-63365952D01*
X136646904Y-63413571D01*
X136694523Y-63508809D01*
X136694523Y-63746904D01*
X136646904Y-63842142D01*
X136599285Y-63889761D01*
X136504047Y-63937380D01*
X136218333Y-63937380D01*
X136123095Y-63889761D01*
X136075476Y-63842142D01*
G04 #@! TO.C,D15*
X147375714Y-99582380D02*
X147375714Y-98582380D01*
X147613809Y-98582380D01*
X147756666Y-98630000D01*
X147851904Y-98725238D01*
X147899523Y-98820476D01*
X147947142Y-99010952D01*
X147947142Y-99153809D01*
X147899523Y-99344285D01*
X147851904Y-99439523D01*
X147756666Y-99534761D01*
X147613809Y-99582380D01*
X147375714Y-99582380D01*
X148899523Y-99582380D02*
X148328095Y-99582380D01*
X148613809Y-99582380D02*
X148613809Y-98582380D01*
X148518571Y-98725238D01*
X148423333Y-98820476D01*
X148328095Y-98868095D01*
X149804285Y-98582380D02*
X149328095Y-98582380D01*
X149280476Y-99058571D01*
X149328095Y-99010952D01*
X149423333Y-98963333D01*
X149661428Y-98963333D01*
X149756666Y-99010952D01*
X149804285Y-99058571D01*
X149851904Y-99153809D01*
X149851904Y-99391904D01*
X149804285Y-99487142D01*
X149756666Y-99534761D01*
X149661428Y-99582380D01*
X149423333Y-99582380D01*
X149328095Y-99534761D01*
X149280476Y-99487142D01*
X143248095Y-99952380D02*
X143248095Y-98952380D01*
X143819523Y-99952380D02*
X143390952Y-99380952D01*
X143819523Y-98952380D02*
X143248095Y-99523809D01*
G04 #@! TO.C,D14*
X119435714Y-98172380D02*
X119435714Y-97172380D01*
X119673809Y-97172380D01*
X119816666Y-97220000D01*
X119911904Y-97315238D01*
X119959523Y-97410476D01*
X120007142Y-97600952D01*
X120007142Y-97743809D01*
X119959523Y-97934285D01*
X119911904Y-98029523D01*
X119816666Y-98124761D01*
X119673809Y-98172380D01*
X119435714Y-98172380D01*
X120959523Y-98172380D02*
X120388095Y-98172380D01*
X120673809Y-98172380D02*
X120673809Y-97172380D01*
X120578571Y-97315238D01*
X120483333Y-97410476D01*
X120388095Y-97458095D01*
X121816666Y-97505714D02*
X121816666Y-98172380D01*
X121578571Y-97124761D02*
X121340476Y-97839047D01*
X121959523Y-97839047D01*
G04 #@! TO.C,D7*
X100861904Y-99582380D02*
X100861904Y-98582380D01*
X101100000Y-98582380D01*
X101242857Y-98630000D01*
X101338095Y-98725238D01*
X101385714Y-98820476D01*
X101433333Y-99010952D01*
X101433333Y-99153809D01*
X101385714Y-99344285D01*
X101338095Y-99439523D01*
X101242857Y-99534761D01*
X101100000Y-99582380D01*
X100861904Y-99582380D01*
X101766666Y-98582380D02*
X102433333Y-98582380D01*
X102004761Y-99582380D01*
X96258095Y-99952380D02*
X96258095Y-98952380D01*
X96829523Y-99952380D02*
X96400952Y-99380952D01*
X96829523Y-98952380D02*
X96258095Y-99523809D01*
G04 #@! TO.C,D2*
X74191904Y-112282380D02*
X74191904Y-111282380D01*
X74430000Y-111282380D01*
X74572857Y-111330000D01*
X74668095Y-111425238D01*
X74715714Y-111520476D01*
X74763333Y-111710952D01*
X74763333Y-111853809D01*
X74715714Y-112044285D01*
X74668095Y-112139523D01*
X74572857Y-112234761D01*
X74430000Y-112282380D01*
X74191904Y-112282380D01*
X75144285Y-111377619D02*
X75191904Y-111330000D01*
X75287142Y-111282380D01*
X75525238Y-111282380D01*
X75620476Y-111330000D01*
X75668095Y-111377619D01*
X75715714Y-111472857D01*
X75715714Y-111568095D01*
X75668095Y-111710952D01*
X75096666Y-112282380D01*
X75715714Y-112282380D01*
X69588095Y-112652380D02*
X69588095Y-111652380D01*
X70159523Y-112652380D02*
X69730952Y-112080952D01*
X70159523Y-111652380D02*
X69588095Y-112223809D01*
D11*
G04 #@! TO.C,C6*
X91680607Y-77015616D02*
X91699355Y-77034364D01*
X91718102Y-77090607D01*
X91718102Y-77128102D01*
X91699355Y-77184345D01*
X91661859Y-77221841D01*
X91624364Y-77240588D01*
X91549373Y-77259336D01*
X91493130Y-77259336D01*
X91418140Y-77240588D01*
X91380644Y-77221841D01*
X91343149Y-77184345D01*
X91324401Y-77128102D01*
X91324401Y-77090607D01*
X91343149Y-77034364D01*
X91361897Y-77015616D01*
X91324401Y-76678158D02*
X91324401Y-76753149D01*
X91343149Y-76790644D01*
X91361897Y-76809392D01*
X91418140Y-76846887D01*
X91493130Y-76865635D01*
X91643112Y-76865635D01*
X91680607Y-76846887D01*
X91699355Y-76828140D01*
X91718102Y-76790644D01*
X91718102Y-76715654D01*
X91699355Y-76678158D01*
X91680607Y-76659411D01*
X91643112Y-76640663D01*
X91549373Y-76640663D01*
X91511878Y-76659411D01*
X91493130Y-76678158D01*
X91474383Y-76715654D01*
X91474383Y-76790644D01*
X91493130Y-76828140D01*
X91511878Y-76846887D01*
X91549373Y-76865635D01*
D10*
G04 #@! TO.C,R1*
X143703333Y-41262380D02*
X143370000Y-40786190D01*
X143131904Y-41262380D02*
X143131904Y-40262380D01*
X143512857Y-40262380D01*
X143608095Y-40310000D01*
X143655714Y-40357619D01*
X143703333Y-40452857D01*
X143703333Y-40595714D01*
X143655714Y-40690952D01*
X143608095Y-40738571D01*
X143512857Y-40786190D01*
X143131904Y-40786190D01*
X144655714Y-41262380D02*
X144084285Y-41262380D01*
X144370000Y-41262380D02*
X144370000Y-40262380D01*
X144274761Y-40405238D01*
X144179523Y-40500476D01*
X144084285Y-40548095D01*
G04 #@! TO.C,J2*
X66976666Y-121067380D02*
X66976666Y-121781666D01*
X66929047Y-121924523D01*
X66833809Y-122019761D01*
X66690952Y-122067380D01*
X66595714Y-122067380D01*
X67405238Y-121162619D02*
X67452857Y-121115000D01*
X67548095Y-121067380D01*
X67786190Y-121067380D01*
X67881428Y-121115000D01*
X67929047Y-121162619D01*
X67976666Y-121257857D01*
X67976666Y-121353095D01*
X67929047Y-121495952D01*
X67357619Y-122067380D01*
X67976666Y-122067380D01*
G04 #@! TO.C,D10*
X119435714Y-112282380D02*
X119435714Y-111282380D01*
X119673809Y-111282380D01*
X119816666Y-111330000D01*
X119911904Y-111425238D01*
X119959523Y-111520476D01*
X120007142Y-111710952D01*
X120007142Y-111853809D01*
X119959523Y-112044285D01*
X119911904Y-112139523D01*
X119816666Y-112234761D01*
X119673809Y-112282380D01*
X119435714Y-112282380D01*
X120959523Y-112282380D02*
X120388095Y-112282380D01*
X120673809Y-112282380D02*
X120673809Y-111282380D01*
X120578571Y-111425238D01*
X120483333Y-111520476D01*
X120388095Y-111568095D01*
X121578571Y-111282380D02*
X121673809Y-111282380D01*
X121769047Y-111330000D01*
X121816666Y-111377619D01*
X121864285Y-111472857D01*
X121911904Y-111663333D01*
X121911904Y-111901428D01*
X121864285Y-112091904D01*
X121816666Y-112187142D01*
X121769047Y-112234761D01*
X121673809Y-112282380D01*
X121578571Y-112282380D01*
X121483333Y-112234761D01*
X121435714Y-112187142D01*
X121388095Y-112091904D01*
X121340476Y-111901428D01*
X121340476Y-111663333D01*
X121388095Y-111472857D01*
X121435714Y-111377619D01*
X121483333Y-111330000D01*
X121578571Y-111282380D01*
G04 #@! TO.C,D13*
X119435714Y-104522380D02*
X119435714Y-103522380D01*
X119673809Y-103522380D01*
X119816666Y-103570000D01*
X119911904Y-103665238D01*
X119959523Y-103760476D01*
X120007142Y-103950952D01*
X120007142Y-104093809D01*
X119959523Y-104284285D01*
X119911904Y-104379523D01*
X119816666Y-104474761D01*
X119673809Y-104522380D01*
X119435714Y-104522380D01*
X120959523Y-104522380D02*
X120388095Y-104522380D01*
X120673809Y-104522380D02*
X120673809Y-103522380D01*
X120578571Y-103665238D01*
X120483333Y-103760476D01*
X120388095Y-103808095D01*
X121292857Y-103522380D02*
X121911904Y-103522380D01*
X121578571Y-103903333D01*
X121721428Y-103903333D01*
X121816666Y-103950952D01*
X121864285Y-103998571D01*
X121911904Y-104093809D01*
X121911904Y-104331904D01*
X121864285Y-104427142D01*
X121816666Y-104474761D01*
X121721428Y-104522380D01*
X121435714Y-104522380D01*
X121340476Y-104474761D01*
X121292857Y-104427142D01*
X125468095Y-104152380D02*
X125468095Y-103152380D01*
X126039523Y-104152380D02*
X125610952Y-103580952D01*
X126039523Y-103152380D02*
X125468095Y-103723809D01*
G04 #@! TO.C,D1*
X74191904Y-110872380D02*
X74191904Y-109872380D01*
X74430000Y-109872380D01*
X74572857Y-109920000D01*
X74668095Y-110015238D01*
X74715714Y-110110476D01*
X74763333Y-110300952D01*
X74763333Y-110443809D01*
X74715714Y-110634285D01*
X74668095Y-110729523D01*
X74572857Y-110824761D01*
X74430000Y-110872380D01*
X74191904Y-110872380D01*
X75715714Y-110872380D02*
X75144285Y-110872380D01*
X75430000Y-110872380D02*
X75430000Y-109872380D01*
X75334761Y-110015238D01*
X75239523Y-110110476D01*
X75144285Y-110158095D01*
X79748095Y-110502380D02*
X79748095Y-109502380D01*
X80319523Y-110502380D02*
X79890952Y-109930952D01*
X80319523Y-109502380D02*
X79748095Y-110073809D01*
G04 #@! TO.C,U4*
X88133095Y-62937380D02*
X88133095Y-63746904D01*
X88180714Y-63842142D01*
X88228333Y-63889761D01*
X88323571Y-63937380D01*
X88514047Y-63937380D01*
X88609285Y-63889761D01*
X88656904Y-63842142D01*
X88704523Y-63746904D01*
X88704523Y-62937380D01*
X89609285Y-63270714D02*
X89609285Y-63937380D01*
X89371190Y-62889761D02*
X89133095Y-63604047D01*
X89752142Y-63604047D01*
G04 #@! TO.C,D8*
X100861904Y-98172380D02*
X100861904Y-97172380D01*
X101100000Y-97172380D01*
X101242857Y-97220000D01*
X101338095Y-97315238D01*
X101385714Y-97410476D01*
X101433333Y-97600952D01*
X101433333Y-97743809D01*
X101385714Y-97934285D01*
X101338095Y-98029523D01*
X101242857Y-98124761D01*
X101100000Y-98172380D01*
X100861904Y-98172380D01*
X102004761Y-97600952D02*
X101909523Y-97553333D01*
X101861904Y-97505714D01*
X101814285Y-97410476D01*
X101814285Y-97362857D01*
X101861904Y-97267619D01*
X101909523Y-97220000D01*
X102004761Y-97172380D01*
X102195238Y-97172380D01*
X102290476Y-97220000D01*
X102338095Y-97267619D01*
X102385714Y-97362857D01*
X102385714Y-97410476D01*
X102338095Y-97505714D01*
X102290476Y-97553333D01*
X102195238Y-97600952D01*
X102004761Y-97600952D01*
X101909523Y-97648571D01*
X101861904Y-97696190D01*
X101814285Y-97791428D01*
X101814285Y-97981904D01*
X101861904Y-98077142D01*
X101909523Y-98124761D01*
X102004761Y-98172380D01*
X102195238Y-98172380D01*
X102290476Y-98124761D01*
X102338095Y-98077142D01*
X102385714Y-97981904D01*
X102385714Y-97791428D01*
X102338095Y-97696190D01*
X102290476Y-97648571D01*
X102195238Y-97600952D01*
X106418095Y-97802380D02*
X106418095Y-96802380D01*
X106989523Y-97802380D02*
X106560952Y-97230952D01*
X106989523Y-96802380D02*
X106418095Y-97373809D01*
G04 #@! TO.C,D11*
X147375714Y-110872380D02*
X147375714Y-109872380D01*
X147613809Y-109872380D01*
X147756666Y-109920000D01*
X147851904Y-110015238D01*
X147899523Y-110110476D01*
X147947142Y-110300952D01*
X147947142Y-110443809D01*
X147899523Y-110634285D01*
X147851904Y-110729523D01*
X147756666Y-110824761D01*
X147613809Y-110872380D01*
X147375714Y-110872380D01*
X148899523Y-110872380D02*
X148328095Y-110872380D01*
X148613809Y-110872380D02*
X148613809Y-109872380D01*
X148518571Y-110015238D01*
X148423333Y-110110476D01*
X148328095Y-110158095D01*
X149851904Y-110872380D02*
X149280476Y-110872380D01*
X149566190Y-110872380D02*
X149566190Y-109872380D01*
X149470952Y-110015238D01*
X149375714Y-110110476D01*
X149280476Y-110158095D01*
X153408095Y-110502380D02*
X153408095Y-109502380D01*
X153979523Y-110502380D02*
X153550952Y-109930952D01*
X153979523Y-109502380D02*
X153408095Y-110073809D01*
G04 #@! TO.C,U1*
X107438095Y-43907680D02*
X107438095Y-44717204D01*
X107485714Y-44812442D01*
X107533333Y-44860061D01*
X107628571Y-44907680D01*
X107819047Y-44907680D01*
X107914285Y-44860061D01*
X107961904Y-44812442D01*
X108009523Y-44717204D01*
X108009523Y-43907680D01*
X109009523Y-44907680D02*
X108438095Y-44907680D01*
X108723809Y-44907680D02*
X108723809Y-43907680D01*
X108628571Y-44050538D01*
X108533333Y-44145776D01*
X108438095Y-44193395D01*
X107960742Y-41021480D02*
X107484552Y-41021480D01*
X107484552Y-40021480D01*
X108294076Y-41021480D02*
X108294076Y-40021480D01*
X108627409Y-40735766D01*
X108960742Y-40021480D01*
X108960742Y-41021480D01*
X109389314Y-40116719D02*
X109436933Y-40069100D01*
X109532171Y-40021480D01*
X109770266Y-40021480D01*
X109865504Y-40069100D01*
X109913123Y-40116719D01*
X109960742Y-40211957D01*
X109960742Y-40307195D01*
X109913123Y-40450052D01*
X109341695Y-41021480D01*
X109960742Y-41021480D01*
X110865504Y-40021480D02*
X110389314Y-40021480D01*
X110341695Y-40497671D01*
X110389314Y-40450052D01*
X110484552Y-40402433D01*
X110722647Y-40402433D01*
X110817885Y-40450052D01*
X110865504Y-40497671D01*
X110913123Y-40592909D01*
X110913123Y-40831004D01*
X110865504Y-40926242D01*
X110817885Y-40973861D01*
X110722647Y-41021480D01*
X110484552Y-41021480D01*
X110389314Y-40973861D01*
X110341695Y-40926242D01*
X111389314Y-41021480D02*
X111579790Y-41021480D01*
X111675028Y-40973861D01*
X111722647Y-40926242D01*
X111817885Y-40783385D01*
X111865504Y-40592909D01*
X111865504Y-40211957D01*
X111817885Y-40116719D01*
X111770266Y-40069100D01*
X111675028Y-40021480D01*
X111484552Y-40021480D01*
X111389314Y-40069100D01*
X111341695Y-40116719D01*
X111294076Y-40211957D01*
X111294076Y-40450052D01*
X111341695Y-40545290D01*
X111389314Y-40592909D01*
X111484552Y-40640528D01*
X111675028Y-40640528D01*
X111770266Y-40592909D01*
X111817885Y-40545290D01*
X111865504Y-40450052D01*
X112722647Y-40021480D02*
X112532171Y-40021480D01*
X112436933Y-40069100D01*
X112389314Y-40116719D01*
X112294076Y-40259576D01*
X112246457Y-40450052D01*
X112246457Y-40831004D01*
X112294076Y-40926242D01*
X112341695Y-40973861D01*
X112436933Y-41021480D01*
X112627409Y-41021480D01*
X112722647Y-40973861D01*
X112770266Y-40926242D01*
X112817885Y-40831004D01*
X112817885Y-40592909D01*
X112770266Y-40497671D01*
X112722647Y-40450052D01*
X112627409Y-40402433D01*
X112436933Y-40402433D01*
X112341695Y-40450052D01*
X112294076Y-40497671D01*
X112246457Y-40592909D01*
X113103600Y-40021480D02*
X113675028Y-40021480D01*
X113389314Y-41021480D02*
X113389314Y-40021480D01*
X114008361Y-40640528D02*
X114770266Y-40640528D01*
X115722647Y-40021480D02*
X115246457Y-40021480D01*
X115198838Y-40497671D01*
X115246457Y-40450052D01*
X115341695Y-40402433D01*
X115579790Y-40402433D01*
X115675028Y-40450052D01*
X115722647Y-40497671D01*
X115770266Y-40592909D01*
X115770266Y-40831004D01*
X115722647Y-40926242D01*
X115675028Y-40973861D01*
X115579790Y-41021480D01*
X115341695Y-41021480D01*
X115246457Y-40973861D01*
X115198838Y-40926242D01*
X109470000Y-43907680D02*
X109470000Y-44145776D01*
X109231904Y-44050538D02*
X109470000Y-44145776D01*
X109708095Y-44050538D01*
X109327142Y-44336252D02*
X109470000Y-44145776D01*
X109612857Y-44336252D01*
G04 #@! TO.C,D5*
X74191904Y-104522380D02*
X74191904Y-103522380D01*
X74430000Y-103522380D01*
X74572857Y-103570000D01*
X74668095Y-103665238D01*
X74715714Y-103760476D01*
X74763333Y-103950952D01*
X74763333Y-104093809D01*
X74715714Y-104284285D01*
X74668095Y-104379523D01*
X74572857Y-104474761D01*
X74430000Y-104522380D01*
X74191904Y-104522380D01*
X75668095Y-103522380D02*
X75191904Y-103522380D01*
X75144285Y-103998571D01*
X75191904Y-103950952D01*
X75287142Y-103903333D01*
X75525238Y-103903333D01*
X75620476Y-103950952D01*
X75668095Y-103998571D01*
X75715714Y-104093809D01*
X75715714Y-104331904D01*
X75668095Y-104427142D01*
X75620476Y-104474761D01*
X75525238Y-104522380D01*
X75287142Y-104522380D01*
X75191904Y-104474761D01*
X75144285Y-104427142D01*
X79748095Y-104152380D02*
X79748095Y-103152380D01*
X80319523Y-104152380D02*
X79890952Y-103580952D01*
X80319523Y-103152380D02*
X79748095Y-103723809D01*
G04 #@! TO.C,D9*
X119911904Y-110872380D02*
X119911904Y-109872380D01*
X120150000Y-109872380D01*
X120292857Y-109920000D01*
X120388095Y-110015238D01*
X120435714Y-110110476D01*
X120483333Y-110300952D01*
X120483333Y-110443809D01*
X120435714Y-110634285D01*
X120388095Y-110729523D01*
X120292857Y-110824761D01*
X120150000Y-110872380D01*
X119911904Y-110872380D01*
X120959523Y-110872380D02*
X121150000Y-110872380D01*
X121245238Y-110824761D01*
X121292857Y-110777142D01*
X121388095Y-110634285D01*
X121435714Y-110443809D01*
X121435714Y-110062857D01*
X121388095Y-109967619D01*
X121340476Y-109920000D01*
X121245238Y-109872380D01*
X121054761Y-109872380D01*
X120959523Y-109920000D01*
X120911904Y-109967619D01*
X120864285Y-110062857D01*
X120864285Y-110300952D01*
X120911904Y-110396190D01*
X120959523Y-110443809D01*
X121054761Y-110491428D01*
X121245238Y-110491428D01*
X121340476Y-110443809D01*
X121388095Y-110396190D01*
X121435714Y-110300952D01*
X125468095Y-110502380D02*
X125468095Y-109502380D01*
X126039523Y-110502380D02*
X125610952Y-109930952D01*
X126039523Y-109502380D02*
X125468095Y-110073809D01*
G04 #@! TO.C,C1*
X125703333Y-47797142D02*
X125655714Y-47844761D01*
X125512857Y-47892380D01*
X125417619Y-47892380D01*
X125274761Y-47844761D01*
X125179523Y-47749523D01*
X125131904Y-47654285D01*
X125084285Y-47463809D01*
X125084285Y-47320952D01*
X125131904Y-47130476D01*
X125179523Y-47035238D01*
X125274761Y-46940000D01*
X125417619Y-46892380D01*
X125512857Y-46892380D01*
X125655714Y-46940000D01*
X125703333Y-46987619D01*
X126655714Y-47892380D02*
X126084285Y-47892380D01*
X126370000Y-47892380D02*
X126370000Y-46892380D01*
X126274761Y-47035238D01*
X126179523Y-47130476D01*
X126084285Y-47178095D01*
D11*
G04 #@! TO.C,C7*
X78364383Y-76340607D02*
X78345635Y-76359355D01*
X78289392Y-76378102D01*
X78251897Y-76378102D01*
X78195654Y-76359355D01*
X78158158Y-76321859D01*
X78139411Y-76284364D01*
X78120663Y-76209373D01*
X78120663Y-76153130D01*
X78139411Y-76078140D01*
X78158158Y-76040644D01*
X78195654Y-76003149D01*
X78251897Y-75984401D01*
X78289392Y-75984401D01*
X78345635Y-76003149D01*
X78364383Y-76021897D01*
X78495616Y-75984401D02*
X78758084Y-75984401D01*
X78589355Y-76378102D01*
D10*
G04 #@! TO.C,J1*
X132281666Y-36687380D02*
X132281666Y-37401666D01*
X132234047Y-37544523D01*
X132138809Y-37639761D01*
X131995952Y-37687380D01*
X131900714Y-37687380D01*
X133281666Y-37687380D02*
X132710238Y-37687380D01*
X132995952Y-37687380D02*
X132995952Y-36687380D01*
X132900714Y-36830238D01*
X132805476Y-36925476D01*
X132710238Y-36973095D01*
G04 #@! TO.C,REF\u002A\u002A*
X115961666Y-48507380D02*
X115628333Y-48031190D01*
X115390238Y-48507380D02*
X115390238Y-47507380D01*
X115771190Y-47507380D01*
X115866428Y-47555000D01*
X115914047Y-47602619D01*
X115961666Y-47697857D01*
X115961666Y-47840714D01*
X115914047Y-47935952D01*
X115866428Y-47983571D01*
X115771190Y-48031190D01*
X115390238Y-48031190D01*
X116390238Y-47983571D02*
X116723571Y-47983571D01*
X116866428Y-48507380D02*
X116390238Y-48507380D01*
X116390238Y-47507380D01*
X116866428Y-47507380D01*
X117628333Y-47983571D02*
X117295000Y-47983571D01*
X117295000Y-48507380D02*
X117295000Y-47507380D01*
X117771190Y-47507380D01*
X118295000Y-47507380D02*
X118295000Y-47745476D01*
X118056904Y-47650238D02*
X118295000Y-47745476D01*
X118533095Y-47650238D01*
X118152142Y-47935952D02*
X118295000Y-47745476D01*
X118437857Y-47935952D01*
X119056904Y-47507380D02*
X119056904Y-47745476D01*
X118818809Y-47650238D02*
X119056904Y-47745476D01*
X119295000Y-47650238D01*
X118914047Y-47935952D02*
X119056904Y-47745476D01*
X119199761Y-47935952D01*
G04 #@! TO.C,D6*
X74191904Y-93162380D02*
X74191904Y-92162380D01*
X74430000Y-92162380D01*
X74572857Y-92210000D01*
X74668095Y-92305238D01*
X74715714Y-92400476D01*
X74763333Y-92590952D01*
X74763333Y-92733809D01*
X74715714Y-92924285D01*
X74668095Y-93019523D01*
X74572857Y-93114761D01*
X74430000Y-93162380D01*
X74191904Y-93162380D01*
X75620476Y-92162380D02*
X75430000Y-92162380D01*
X75334761Y-92210000D01*
X75287142Y-92257619D01*
X75191904Y-92400476D01*
X75144285Y-92590952D01*
X75144285Y-92971904D01*
X75191904Y-93067142D01*
X75239523Y-93114761D01*
X75334761Y-93162380D01*
X75525238Y-93162380D01*
X75620476Y-93114761D01*
X75668095Y-93067142D01*
X75715714Y-92971904D01*
X75715714Y-92733809D01*
X75668095Y-92638571D01*
X75620476Y-92590952D01*
X75525238Y-92543333D01*
X75334761Y-92543333D01*
X75239523Y-92590952D01*
X75191904Y-92638571D01*
X75144285Y-92733809D01*
X79748095Y-97802380D02*
X79748095Y-96802380D01*
X80319523Y-97802380D02*
X79890952Y-97230952D01*
X80319523Y-96802380D02*
X79748095Y-97373809D01*
G04 #@! TO.C,C2*
X64721414Y-39547081D02*
X64769033Y-39594700D01*
X64816652Y-39737557D01*
X64816652Y-39832795D01*
X64769033Y-39975653D01*
X64673795Y-40070891D01*
X64578557Y-40118510D01*
X64388081Y-40166129D01*
X64245224Y-40166129D01*
X64054748Y-40118510D01*
X63959510Y-40070891D01*
X63864272Y-39975653D01*
X63816652Y-39832795D01*
X63816652Y-39737557D01*
X63864272Y-39594700D01*
X63911891Y-39547081D01*
X63911891Y-39166129D02*
X63864272Y-39118510D01*
X63816652Y-39023272D01*
X63816652Y-38785176D01*
X63864272Y-38689938D01*
X63911891Y-38642319D01*
X64007129Y-38594700D01*
X64102367Y-38594700D01*
X64245224Y-38642319D01*
X64816652Y-39213748D01*
X64816652Y-38594700D01*
G04 #@! TO.C,D18*
X150910714Y-46592380D02*
X150910714Y-45592380D01*
X151148809Y-45592380D01*
X151291666Y-45640000D01*
X151386904Y-45735238D01*
X151434523Y-45830476D01*
X151482142Y-46020952D01*
X151482142Y-46163809D01*
X151434523Y-46354285D01*
X151386904Y-46449523D01*
X151291666Y-46544761D01*
X151148809Y-46592380D01*
X150910714Y-46592380D01*
X152434523Y-46592380D02*
X151863095Y-46592380D01*
X152148809Y-46592380D02*
X152148809Y-45592380D01*
X152053571Y-45735238D01*
X151958333Y-45830476D01*
X151863095Y-45878095D01*
X153005952Y-46020952D02*
X152910714Y-45973333D01*
X152863095Y-45925714D01*
X152815476Y-45830476D01*
X152815476Y-45782857D01*
X152863095Y-45687619D01*
X152910714Y-45640000D01*
X153005952Y-45592380D01*
X153196428Y-45592380D01*
X153291666Y-45640000D01*
X153339285Y-45687619D01*
X153386904Y-45782857D01*
X153386904Y-45830476D01*
X153339285Y-45925714D01*
X153291666Y-45973333D01*
X153196428Y-46020952D01*
X153005952Y-46020952D01*
X152910714Y-46068571D01*
X152863095Y-46116190D01*
X152815476Y-46211428D01*
X152815476Y-46401904D01*
X152863095Y-46497142D01*
X152910714Y-46544761D01*
X153005952Y-46592380D01*
X153196428Y-46592380D01*
X153291666Y-46544761D01*
X153339285Y-46497142D01*
X153386904Y-46401904D01*
X153386904Y-46211428D01*
X153339285Y-46116190D01*
X153291666Y-46068571D01*
X153196428Y-46020952D01*
G04 #@! TO.C,L1*
X79203333Y-42582880D02*
X78727142Y-42582880D01*
X78727142Y-41582880D01*
X80060476Y-42582880D02*
X79489047Y-42582880D01*
X79774761Y-42582880D02*
X79774761Y-41582880D01*
X79679523Y-41725738D01*
X79584285Y-41820976D01*
X79489047Y-41868595D01*
X77584285Y-44122880D02*
X78203333Y-44122880D01*
X77870000Y-44503833D01*
X78012857Y-44503833D01*
X78108095Y-44551452D01*
X78155714Y-44599071D01*
X78203333Y-44694309D01*
X78203333Y-44932404D01*
X78155714Y-45027642D01*
X78108095Y-45075261D01*
X78012857Y-45122880D01*
X77727142Y-45122880D01*
X77631904Y-45075261D01*
X77584285Y-45027642D01*
X78536666Y-44122880D02*
X79155714Y-44122880D01*
X78822380Y-44503833D01*
X78965238Y-44503833D01*
X79060476Y-44551452D01*
X79108095Y-44599071D01*
X79155714Y-44694309D01*
X79155714Y-44932404D01*
X79108095Y-45027642D01*
X79060476Y-45075261D01*
X78965238Y-45122880D01*
X78679523Y-45122880D01*
X78584285Y-45075261D01*
X78536666Y-45027642D01*
X80012857Y-44456214D02*
X80012857Y-45122880D01*
X79584285Y-44456214D02*
X79584285Y-44980023D01*
X79631904Y-45075261D01*
X79727142Y-45122880D01*
X79870000Y-45122880D01*
X79965238Y-45075261D01*
X80012857Y-45027642D01*
X80489047Y-45122880D02*
X80489047Y-44122880D01*
X80489047Y-44599071D02*
X81060476Y-44599071D01*
X81060476Y-45122880D02*
X81060476Y-44122880D01*
X79370000Y-42892380D02*
X79370000Y-43130476D01*
X79131904Y-43035238D02*
X79370000Y-43130476D01*
X79608095Y-43035238D01*
X79227142Y-43320952D02*
X79370000Y-43130476D01*
X79512857Y-43320952D01*
G04 #@! TO.C,D3*
X100861904Y-110872380D02*
X100861904Y-109872380D01*
X101100000Y-109872380D01*
X101242857Y-109920000D01*
X101338095Y-110015238D01*
X101385714Y-110110476D01*
X101433333Y-110300952D01*
X101433333Y-110443809D01*
X101385714Y-110634285D01*
X101338095Y-110729523D01*
X101242857Y-110824761D01*
X101100000Y-110872380D01*
X100861904Y-110872380D01*
X101766666Y-109872380D02*
X102385714Y-109872380D01*
X102052380Y-110253333D01*
X102195238Y-110253333D01*
X102290476Y-110300952D01*
X102338095Y-110348571D01*
X102385714Y-110443809D01*
X102385714Y-110681904D01*
X102338095Y-110777142D01*
X102290476Y-110824761D01*
X102195238Y-110872380D01*
X101909523Y-110872380D01*
X101814285Y-110824761D01*
X101766666Y-110777142D01*
X106418095Y-110502380D02*
X106418095Y-109502380D01*
X106989523Y-110502380D02*
X106560952Y-109930952D01*
X106989523Y-109502380D02*
X106418095Y-110073809D01*
G04 #@! TO.C,J4*
X126666666Y-122646880D02*
X126666666Y-123361166D01*
X126619047Y-123504023D01*
X126523809Y-123599261D01*
X126380952Y-123646880D01*
X126285714Y-123646880D01*
X127571428Y-122980214D02*
X127571428Y-123646880D01*
X127333333Y-122599261D02*
X127095238Y-123313547D01*
X127714285Y-123313547D01*
G04 #@! TO.C,D17*
X95155714Y-40672380D02*
X95155714Y-39672380D01*
X95393809Y-39672380D01*
X95536666Y-39720000D01*
X95631904Y-39815238D01*
X95679523Y-39910476D01*
X95727142Y-40100952D01*
X95727142Y-40243809D01*
X95679523Y-40434285D01*
X95631904Y-40529523D01*
X95536666Y-40624761D01*
X95393809Y-40672380D01*
X95155714Y-40672380D01*
X96679523Y-40672380D02*
X96108095Y-40672380D01*
X96393809Y-40672380D02*
X96393809Y-39672380D01*
X96298571Y-39815238D01*
X96203333Y-39910476D01*
X96108095Y-39958095D01*
X97012857Y-39672380D02*
X97679523Y-39672380D01*
X97250952Y-40672380D01*
X88488095Y-41792380D02*
X88488095Y-40792380D01*
X89059523Y-41792380D02*
X88630952Y-41220952D01*
X89059523Y-40792380D02*
X88488095Y-41363809D01*
G04 #@! TO.C,C3*
X87560682Y-96707142D02*
X87513063Y-96754761D01*
X87370206Y-96802380D01*
X87274968Y-96802380D01*
X87132110Y-96754761D01*
X87036872Y-96659523D01*
X86989253Y-96564285D01*
X86941634Y-96373809D01*
X86941634Y-96230952D01*
X86989253Y-96040476D01*
X87036872Y-95945238D01*
X87132110Y-95850000D01*
X87274968Y-95802380D01*
X87370206Y-95802380D01*
X87513063Y-95850000D01*
X87560682Y-95897619D01*
X87894015Y-95802380D02*
X88513063Y-95802380D01*
X88179729Y-96183333D01*
X88322587Y-96183333D01*
X88417825Y-96230952D01*
X88465444Y-96278571D01*
X88513063Y-96373809D01*
X88513063Y-96611904D01*
X88465444Y-96707142D01*
X88417825Y-96754761D01*
X88322587Y-96802380D01*
X88036872Y-96802380D01*
X87941634Y-96754761D01*
X87894015Y-96707142D01*
G04 #@! TO.C,D4*
X100861904Y-112282380D02*
X100861904Y-111282380D01*
X101100000Y-111282380D01*
X101242857Y-111330000D01*
X101338095Y-111425238D01*
X101385714Y-111520476D01*
X101433333Y-111710952D01*
X101433333Y-111853809D01*
X101385714Y-112044285D01*
X101338095Y-112139523D01*
X101242857Y-112234761D01*
X101100000Y-112282380D01*
X100861904Y-112282380D01*
X102290476Y-111615714D02*
X102290476Y-112282380D01*
X102052380Y-111234761D02*
X101814285Y-111949047D01*
X102433333Y-111949047D01*
X96258095Y-112652380D02*
X96258095Y-111652380D01*
X96829523Y-112652380D02*
X96400952Y-112080952D01*
X96829523Y-111652380D02*
X96258095Y-112223809D01*
D11*
G04 #@! TO.C,C5*
X138316607Y-77480616D02*
X138335355Y-77499364D01*
X138354102Y-77555607D01*
X138354102Y-77593102D01*
X138335355Y-77649345D01*
X138297859Y-77686841D01*
X138260364Y-77705588D01*
X138185373Y-77724336D01*
X138129130Y-77724336D01*
X138054140Y-77705588D01*
X138016644Y-77686841D01*
X137979149Y-77649345D01*
X137960401Y-77593102D01*
X137960401Y-77555607D01*
X137979149Y-77499364D01*
X137997897Y-77480616D01*
X137960401Y-77124411D02*
X137960401Y-77311887D01*
X138147878Y-77330635D01*
X138129130Y-77311887D01*
X138110383Y-77274392D01*
X138110383Y-77180654D01*
X138129130Y-77143158D01*
X138147878Y-77124411D01*
X138185373Y-77105663D01*
X138279112Y-77105663D01*
X138316607Y-77124411D01*
X138335355Y-77143158D01*
X138354102Y-77180654D01*
X138354102Y-77274392D01*
X138335355Y-77311887D01*
X138316607Y-77330635D01*
D10*
G04 #@! TO.C,J5*
X154606666Y-122642380D02*
X154606666Y-123356666D01*
X154559047Y-123499523D01*
X154463809Y-123594761D01*
X154320952Y-123642380D01*
X154225714Y-123642380D01*
X155559047Y-122642380D02*
X155082857Y-122642380D01*
X155035238Y-123118571D01*
X155082857Y-123070952D01*
X155178095Y-123023333D01*
X155416190Y-123023333D01*
X155511428Y-123070952D01*
X155559047Y-123118571D01*
X155606666Y-123213809D01*
X155606666Y-123451904D01*
X155559047Y-123547142D01*
X155511428Y-123594761D01*
X155416190Y-123642380D01*
X155178095Y-123642380D01*
X155082857Y-123594761D01*
X155035238Y-123547142D01*
D11*
G04 #@! TO.C,C8*
X133606383Y-57544607D02*
X133587635Y-57563355D01*
X133531392Y-57582102D01*
X133493897Y-57582102D01*
X133437654Y-57563355D01*
X133400158Y-57525859D01*
X133381411Y-57488364D01*
X133362663Y-57413373D01*
X133362663Y-57357130D01*
X133381411Y-57282140D01*
X133400158Y-57244644D01*
X133437654Y-57207149D01*
X133493897Y-57188401D01*
X133531392Y-57188401D01*
X133587635Y-57207149D01*
X133606383Y-57225897D01*
X133831355Y-57357130D02*
X133793859Y-57338383D01*
X133775112Y-57319635D01*
X133756364Y-57282140D01*
X133756364Y-57263392D01*
X133775112Y-57225897D01*
X133793859Y-57207149D01*
X133831355Y-57188401D01*
X133906345Y-57188401D01*
X133943841Y-57207149D01*
X133962588Y-57225897D01*
X133981336Y-57263392D01*
X133981336Y-57282140D01*
X133962588Y-57319635D01*
X133943841Y-57338383D01*
X133906345Y-57357130D01*
X133831355Y-57357130D01*
X133793859Y-57375878D01*
X133775112Y-57394626D01*
X133756364Y-57432121D01*
X133756364Y-57507112D01*
X133775112Y-57544607D01*
X133793859Y-57563355D01*
X133831355Y-57582102D01*
X133906345Y-57582102D01*
X133943841Y-57563355D01*
X133962588Y-57544607D01*
X133981336Y-57507112D01*
X133981336Y-57432121D01*
X133962588Y-57394626D01*
X133943841Y-57375878D01*
X133906345Y-57357130D01*
D10*
G04 #@! TO.C,C4*
X134550682Y-99247142D02*
X134503063Y-99294761D01*
X134360206Y-99342380D01*
X134264968Y-99342380D01*
X134122110Y-99294761D01*
X134026872Y-99199523D01*
X133979253Y-99104285D01*
X133931634Y-98913809D01*
X133931634Y-98770952D01*
X133979253Y-98580476D01*
X134026872Y-98485238D01*
X134122110Y-98390000D01*
X134264968Y-98342380D01*
X134360206Y-98342380D01*
X134503063Y-98390000D01*
X134550682Y-98437619D01*
X135407825Y-98675714D02*
X135407825Y-99342380D01*
X135169729Y-98294761D02*
X134931634Y-99009047D01*
X135550682Y-99009047D01*
G04 #@! TO.C,REF\u002A\u002A*
X69211666Y-48507380D02*
X68878333Y-48031190D01*
X68640238Y-48507380D02*
X68640238Y-47507380D01*
X69021190Y-47507380D01*
X69116428Y-47555000D01*
X69164047Y-47602619D01*
X69211666Y-47697857D01*
X69211666Y-47840714D01*
X69164047Y-47935952D01*
X69116428Y-47983571D01*
X69021190Y-48031190D01*
X68640238Y-48031190D01*
X69640238Y-47983571D02*
X69973571Y-47983571D01*
X70116428Y-48507380D02*
X69640238Y-48507380D01*
X69640238Y-47507380D01*
X70116428Y-47507380D01*
X70878333Y-47983571D02*
X70545000Y-47983571D01*
X70545000Y-48507380D02*
X70545000Y-47507380D01*
X71021190Y-47507380D01*
X71545000Y-47507380D02*
X71545000Y-47745476D01*
X71306904Y-47650238D02*
X71545000Y-47745476D01*
X71783095Y-47650238D01*
X71402142Y-47935952D02*
X71545000Y-47745476D01*
X71687857Y-47935952D01*
X72306904Y-47507380D02*
X72306904Y-47745476D01*
X72068809Y-47650238D02*
X72306904Y-47745476D01*
X72545000Y-47650238D01*
X72164047Y-47935952D02*
X72306904Y-47745476D01*
X72449761Y-47935952D01*
G04 #@! TO.C,D12*
X147375714Y-112282380D02*
X147375714Y-111282380D01*
X147613809Y-111282380D01*
X147756666Y-111330000D01*
X147851904Y-111425238D01*
X147899523Y-111520476D01*
X147947142Y-111710952D01*
X147947142Y-111853809D01*
X147899523Y-112044285D01*
X147851904Y-112139523D01*
X147756666Y-112234761D01*
X147613809Y-112282380D01*
X147375714Y-112282380D01*
X148899523Y-112282380D02*
X148328095Y-112282380D01*
X148613809Y-112282380D02*
X148613809Y-111282380D01*
X148518571Y-111425238D01*
X148423333Y-111520476D01*
X148328095Y-111568095D01*
X149280476Y-111377619D02*
X149328095Y-111330000D01*
X149423333Y-111282380D01*
X149661428Y-111282380D01*
X149756666Y-111330000D01*
X149804285Y-111377619D01*
X149851904Y-111472857D01*
X149851904Y-111568095D01*
X149804285Y-111710952D01*
X149232857Y-112282380D01*
X149851904Y-112282380D01*
X143248095Y-112652380D02*
X143248095Y-111652380D01*
X143819523Y-112652380D02*
X143390952Y-112080952D01*
X143819523Y-111652380D02*
X143248095Y-112223809D01*
D12*
G04 #@! TO.C,U2*
X63500000Y-38100000D02*
X38100000Y-38100000D01*
X63500000Y-86360000D02*
X38100000Y-86360000D01*
D13*
X65737916Y-87630000D02*
G75*
G03*
X65737916Y-87630000I-713916J0D01*
G01*
D14*
G04 #@! TO.C,D16*
X145870000Y-93780000D02*
X145870000Y-96720000D01*
X151310000Y-93780000D02*
X145870000Y-93780000D01*
X150530000Y-96720000D02*
X150530000Y-93780000D01*
X144850000Y-95250000D02*
X145870000Y-95250000D01*
X150290000Y-96720000D02*
X150290000Y-93780000D01*
X150410000Y-96720000D02*
X150410000Y-93780000D01*
X152330000Y-95250000D02*
X151310000Y-95250000D01*
X151310000Y-96720000D02*
X151310000Y-93780000D01*
X145870000Y-96720000D02*
X151310000Y-96720000D01*
G04 #@! TO.C,J3*
X96455000Y-127595000D02*
X106735000Y-127595000D01*
X102908000Y-124518000D02*
X102861000Y-124564000D01*
X96455000Y-118234000D02*
X96455000Y-128155000D01*
X103101000Y-124734000D02*
X103066000Y-124769000D01*
X96455000Y-126095000D02*
X106735000Y-126095000D01*
X96455000Y-118234000D02*
X106735000Y-118234000D01*
X105410000Y-122426000D02*
X105363000Y-122472000D01*
X96215000Y-128395000D02*
X96715000Y-128395000D01*
X96215000Y-127655000D02*
X96215000Y-128395000D01*
X96455000Y-121194000D02*
X106735000Y-121194000D01*
X105205000Y-122220000D02*
X105170000Y-122256000D01*
X106735000Y-118234000D02*
X106735000Y-128155000D01*
X96455000Y-128155000D02*
X106735000Y-128155000D01*
X100590001Y-124179000D02*
G75*
G03*
X100590427Y-122811958I-1535001J684000D01*
G01*
X99055000Y-125175000D02*
G75*
G03*
X99738318Y-125029756I0J1680000D01*
G01*
X99739000Y-121960000D02*
G75*
G03*
X98371958Y-121959573I-684001J-1534993D01*
G01*
X98371000Y-125030000D02*
G75*
G03*
X99083805Y-125175253I683999J1535001D01*
G01*
X97520000Y-122811000D02*
G75*
G03*
X97519573Y-124178042I1534993J-684001D01*
G01*
X105815000Y-123495000D02*
G75*
G03*
X105815000Y-123495000I-1680000J0D01*
G01*
G04 #@! TO.C,U3*
X142235000Y-69726000D02*
X142235000Y-73120000D01*
X144775000Y-69726000D02*
X144775000Y-73120000D01*
X126995000Y-69726000D02*
X126995000Y-73135000D01*
X131730000Y-69726000D02*
X132421000Y-69726000D01*
X137155000Y-69726000D02*
X137155000Y-73120000D01*
X132075000Y-69726000D02*
X132075000Y-73120000D01*
X137735000Y-64485000D02*
X137735000Y-66325000D01*
X125665000Y-69726000D02*
X127341000Y-69726000D01*
X144430000Y-69726000D02*
X146105000Y-69726000D01*
X146105000Y-64485000D02*
X146105000Y-69726000D01*
X136810000Y-69726000D02*
X137501000Y-69726000D01*
X134615000Y-69726000D02*
X134615000Y-73120000D01*
X134270000Y-69726000D02*
X134961000Y-69726000D01*
X139695000Y-69726000D02*
X139695000Y-73120000D01*
X129190000Y-69726000D02*
X129881000Y-69726000D01*
X139350000Y-69726000D02*
X140041000Y-69726000D01*
X125665000Y-64485000D02*
X125665000Y-69726000D01*
X141890000Y-69726000D02*
X142581000Y-69726000D01*
X134036000Y-64485000D02*
X134036000Y-66325000D01*
X125665000Y-66325000D02*
X146105000Y-66325000D01*
X125665000Y-64485000D02*
X146105000Y-64485000D01*
X129535000Y-69726000D02*
X129535000Y-73120000D01*
G04 #@! TO.C,D15*
X145870000Y-100130000D02*
X145870000Y-103070000D01*
X152330000Y-101600000D02*
X151310000Y-101600000D01*
X146770000Y-100130000D02*
X146770000Y-103070000D01*
X151310000Y-100130000D02*
X145870000Y-100130000D01*
X146890000Y-100130000D02*
X146890000Y-103070000D01*
X146650000Y-100130000D02*
X146650000Y-103070000D01*
X151310000Y-103070000D02*
X151310000Y-100130000D01*
X144850000Y-101600000D02*
X145870000Y-101600000D01*
X145870000Y-103070000D02*
X151310000Y-103070000D01*
G04 #@! TO.C,D14*
X123370000Y-96720000D02*
X123370000Y-93780000D01*
X123370000Y-93780000D02*
X117930000Y-93780000D01*
X117930000Y-93780000D02*
X117930000Y-96720000D01*
X122350000Y-96720000D02*
X122350000Y-93780000D01*
X122470000Y-96720000D02*
X122470000Y-93780000D01*
X117930000Y-96720000D02*
X123370000Y-96720000D01*
X116910000Y-95250000D02*
X117930000Y-95250000D01*
X122590000Y-96720000D02*
X122590000Y-93780000D01*
X124390000Y-95250000D02*
X123370000Y-95250000D01*
G04 #@! TO.C,D7*
X105340000Y-101600000D02*
X104320000Y-101600000D01*
X104320000Y-100130000D02*
X98880000Y-100130000D01*
X99660000Y-100130000D02*
X99660000Y-103070000D01*
X97860000Y-101600000D02*
X98880000Y-101600000D01*
X98880000Y-103070000D02*
X104320000Y-103070000D01*
X99780000Y-100130000D02*
X99780000Y-103070000D01*
X99900000Y-100130000D02*
X99900000Y-103070000D01*
X104320000Y-103070000D02*
X104320000Y-100130000D01*
X98880000Y-100130000D02*
X98880000Y-103070000D01*
G04 #@! TO.C,D2*
X72990000Y-112830000D02*
X72990000Y-115770000D01*
X73110000Y-112830000D02*
X73110000Y-115770000D01*
X72210000Y-115770000D02*
X77650000Y-115770000D01*
X71190000Y-114300000D02*
X72210000Y-114300000D01*
X72210000Y-112830000D02*
X72210000Y-115770000D01*
X77650000Y-112830000D02*
X72210000Y-112830000D01*
X78670000Y-114300000D02*
X77650000Y-114300000D01*
X77650000Y-115770000D02*
X77650000Y-112830000D01*
X73230000Y-112830000D02*
X73230000Y-115770000D01*
G04 #@! TO.C,R1*
X140600000Y-44220000D02*
X140600000Y-44550000D01*
X140600000Y-42140000D02*
X140600000Y-41810000D01*
X140600000Y-41810000D02*
X147140000Y-41810000D01*
X147140000Y-41810000D02*
X147140000Y-42140000D01*
X140600000Y-44550000D02*
X147140000Y-44550000D01*
X147140000Y-44550000D02*
X147140000Y-44220000D01*
G04 #@! TO.C,J2*
X80065000Y-118234000D02*
X80065000Y-128155000D01*
X78740000Y-122426000D02*
X78693000Y-122472000D01*
X69785000Y-121194000D02*
X80065000Y-121194000D01*
X69785000Y-127595000D02*
X80065000Y-127595000D01*
X69785000Y-118234000D02*
X80065000Y-118234000D01*
X69785000Y-128155000D02*
X80065000Y-128155000D01*
X78535000Y-122220000D02*
X78500000Y-122256000D01*
X76431000Y-124734000D02*
X76396000Y-124769000D01*
X69785000Y-118234000D02*
X69785000Y-128155000D01*
X69545000Y-127655000D02*
X69545000Y-128395000D01*
X69545000Y-128395000D02*
X70045000Y-128395000D01*
X76238000Y-124518000D02*
X76191000Y-124564000D01*
X69785000Y-126095000D02*
X80065000Y-126095000D01*
X71701000Y-125030000D02*
G75*
G03*
X72413805Y-125175253I683999J1535001D01*
G01*
X73920001Y-124179000D02*
G75*
G03*
X73920427Y-122811958I-1535001J684000D01*
G01*
X72385000Y-125175000D02*
G75*
G03*
X73068318Y-125029756I0J1680000D01*
G01*
X73069000Y-121960000D02*
G75*
G03*
X71701958Y-121959573I-684001J-1534993D01*
G01*
X70850000Y-122811000D02*
G75*
G03*
X70849573Y-124178042I1534993J-684001D01*
G01*
X79145000Y-123495000D02*
G75*
G03*
X79145000Y-123495000I-1680000J0D01*
G01*
G04 #@! TO.C,D10*
X116910000Y-114300000D02*
X117930000Y-114300000D01*
X117930000Y-115770000D02*
X123370000Y-115770000D01*
X123370000Y-112830000D02*
X117930000Y-112830000D01*
X118710000Y-112830000D02*
X118710000Y-115770000D01*
X118950000Y-112830000D02*
X118950000Y-115770000D01*
X118830000Y-112830000D02*
X118830000Y-115770000D01*
X124390000Y-114300000D02*
X123370000Y-114300000D01*
X117930000Y-112830000D02*
X117930000Y-115770000D01*
X123370000Y-115770000D02*
X123370000Y-112830000D01*
G04 #@! TO.C,D13*
X123370000Y-103070000D02*
X123370000Y-100130000D01*
X122590000Y-103070000D02*
X122590000Y-100130000D01*
X123370000Y-100130000D02*
X117930000Y-100130000D01*
X124390000Y-101600000D02*
X123370000Y-101600000D01*
X122470000Y-103070000D02*
X122470000Y-100130000D01*
X116910000Y-101600000D02*
X117930000Y-101600000D01*
X117930000Y-100130000D02*
X117930000Y-103070000D01*
X117930000Y-103070000D02*
X123370000Y-103070000D01*
X122350000Y-103070000D02*
X122350000Y-100130000D01*
G04 #@! TO.C,D1*
X71190000Y-107950000D02*
X72210000Y-107950000D01*
X72210000Y-106480000D02*
X72210000Y-109420000D01*
X76870000Y-109420000D02*
X76870000Y-106480000D01*
X76750000Y-109420000D02*
X76750000Y-106480000D01*
X72210000Y-109420000D02*
X77650000Y-109420000D01*
X76630000Y-109420000D02*
X76630000Y-106480000D01*
X77650000Y-109420000D02*
X77650000Y-106480000D01*
X77650000Y-106480000D02*
X72210000Y-106480000D01*
X78670000Y-107950000D02*
X77650000Y-107950000D01*
G04 #@! TO.C,U4*
X87625000Y-69726000D02*
X87625000Y-73120000D01*
X87046000Y-64485000D02*
X87046000Y-66325000D01*
X84740000Y-69726000D02*
X85431000Y-69726000D01*
X78675000Y-64485000D02*
X99115000Y-64485000D01*
X97440000Y-69726000D02*
X99115000Y-69726000D01*
X90165000Y-69726000D02*
X90165000Y-73120000D01*
X97785000Y-69726000D02*
X97785000Y-73120000D01*
X82545000Y-69726000D02*
X82545000Y-73120000D01*
X78675000Y-66325000D02*
X99115000Y-66325000D01*
X95245000Y-69726000D02*
X95245000Y-73120000D01*
X82200000Y-69726000D02*
X82891000Y-69726000D01*
X90745000Y-64485000D02*
X90745000Y-66325000D01*
X80005000Y-69726000D02*
X80005000Y-73135000D01*
X94900000Y-69726000D02*
X95591000Y-69726000D01*
X92360000Y-69726000D02*
X93051000Y-69726000D01*
X87280000Y-69726000D02*
X87971000Y-69726000D01*
X89820000Y-69726000D02*
X90511000Y-69726000D01*
X99115000Y-64485000D02*
X99115000Y-69726000D01*
X78675000Y-64485000D02*
X78675000Y-69726000D01*
X92705000Y-69726000D02*
X92705000Y-73120000D01*
X85085000Y-69726000D02*
X85085000Y-73120000D01*
X78675000Y-69726000D02*
X80351000Y-69726000D01*
G04 #@! TO.C,D8*
X98880000Y-93780000D02*
X98880000Y-96720000D01*
X103420000Y-96720000D02*
X103420000Y-93780000D01*
X98880000Y-96720000D02*
X104320000Y-96720000D01*
X103300000Y-96720000D02*
X103300000Y-93780000D01*
X103540000Y-96720000D02*
X103540000Y-93780000D01*
X105340000Y-95250000D02*
X104320000Y-95250000D01*
X104320000Y-96720000D02*
X104320000Y-93780000D01*
X104320000Y-93780000D02*
X98880000Y-93780000D01*
X97860000Y-95250000D02*
X98880000Y-95250000D01*
G04 #@! TO.C,D11*
X151310000Y-106480000D02*
X145870000Y-106480000D01*
X145870000Y-106480000D02*
X145870000Y-109420000D01*
X151310000Y-109420000D02*
X151310000Y-106480000D01*
X150290000Y-109420000D02*
X150290000Y-106480000D01*
X150410000Y-109420000D02*
X150410000Y-106480000D01*
X152330000Y-107950000D02*
X151310000Y-107950000D01*
X145870000Y-109420000D02*
X151310000Y-109420000D01*
X150530000Y-109420000D02*
X150530000Y-106480000D01*
X144850000Y-107950000D02*
X145870000Y-107950000D01*
G04 #@! TO.C,U1*
X114580068Y-43045600D02*
X117001100Y-43045600D01*
X117001100Y-43045600D02*
X117001100Y-38092600D01*
X106206100Y-38092600D02*
X106206100Y-43045600D01*
X106206100Y-43045600D02*
X108627132Y-43045600D01*
X106333100Y-39362600D02*
X116874100Y-39362600D01*
X111176468Y-43045600D02*
X112030732Y-43045600D01*
X117001100Y-38092600D02*
X106206100Y-38092600D01*
X104631300Y-47160400D02*
G75*
G03*
X104631300Y-47160400I-203200J0D01*
G01*
G04 #@! TO.C,D5*
X77650000Y-103070000D02*
X77650000Y-100130000D01*
X77650000Y-100130000D02*
X72210000Y-100130000D01*
X78670000Y-101600000D02*
X77650000Y-101600000D01*
X72210000Y-103070000D02*
X77650000Y-103070000D01*
X71190000Y-101600000D02*
X72210000Y-101600000D01*
X76630000Y-103070000D02*
X76630000Y-100130000D01*
X72210000Y-100130000D02*
X72210000Y-103070000D01*
X76870000Y-103070000D02*
X76870000Y-100130000D01*
X76750000Y-103070000D02*
X76750000Y-100130000D01*
G04 #@! TO.C,D9*
X123370000Y-106480000D02*
X117930000Y-106480000D01*
X123370000Y-109420000D02*
X123370000Y-106480000D01*
X122470000Y-109420000D02*
X122470000Y-106480000D01*
X124390000Y-107950000D02*
X123370000Y-107950000D01*
X122350000Y-109420000D02*
X122350000Y-106480000D01*
X116910000Y-107950000D02*
X117930000Y-107950000D01*
X122590000Y-109420000D02*
X122590000Y-106480000D01*
X117930000Y-109420000D02*
X123370000Y-109420000D01*
X117930000Y-106480000D02*
X117930000Y-109420000D01*
D15*
G04 #@! TO.C,C1*
X126370000Y-43440000D02*
G75*
G03*
X126370000Y-43440000I-4000000J0D01*
G01*
D16*
X122470000Y-38690000D02*
G75*
G03*
X122470000Y-38690000I-100000J0D01*
G01*
D14*
G04 #@! TO.C,J1*
X127475000Y-38234000D02*
X137755000Y-38234000D01*
X127475000Y-41194000D02*
X137755000Y-41194000D01*
X127475000Y-47595000D02*
X137755000Y-47595000D01*
X127235000Y-48395000D02*
X127735000Y-48395000D01*
X137755000Y-38234000D02*
X137755000Y-48155000D01*
X136430000Y-42426000D02*
X136383000Y-42472000D01*
X127475000Y-48155000D02*
X137755000Y-48155000D01*
X134121000Y-44734000D02*
X134086000Y-44769000D01*
X127475000Y-46095000D02*
X137755000Y-46095000D01*
X133928000Y-44518000D02*
X133881000Y-44564000D01*
X127475000Y-38234000D02*
X127475000Y-48155000D01*
X136225000Y-42220000D02*
X136190000Y-42256000D01*
X127235000Y-47655000D02*
X127235000Y-48395000D01*
X129391000Y-45030000D02*
G75*
G03*
X130103805Y-45175253I683999J1535001D01*
G01*
X130759000Y-41960000D02*
G75*
G03*
X129391958Y-41959573I-684001J-1534993D01*
G01*
X128540000Y-42811000D02*
G75*
G03*
X128539573Y-44178042I1534993J-684001D01*
G01*
X131610001Y-44179000D02*
G75*
G03*
X131610427Y-42811958I-1535001J684000D01*
G01*
X130075000Y-45175000D02*
G75*
G03*
X130758318Y-45029756I0J1680000D01*
G01*
X136835000Y-43495000D02*
G75*
G03*
X136835000Y-43495000I-1680000J0D01*
G01*
D15*
G04 #@! TO.C,REF\u002A\u002A*
X129205000Y-61400000D02*
X129205000Y-49490000D01*
X114165000Y-49490000D02*
X114165000Y-74890000D01*
X129205000Y-49490000D02*
X114165000Y-49490000D01*
X156075000Y-74890000D02*
X156075000Y-49490000D01*
X122420000Y-64360000D02*
X122420000Y-74890000D01*
X141035000Y-61400000D02*
X129205000Y-61400000D01*
X156075000Y-49490000D02*
X141035000Y-49490000D01*
X147820000Y-64360000D02*
X147820000Y-74890000D01*
X141035000Y-49490000D02*
X141035000Y-61400000D01*
X147820000Y-74890000D02*
X156075000Y-74890000D01*
X114165000Y-74890000D02*
X122420000Y-74890000D01*
X124590000Y-62970000D02*
X145650000Y-62970000D01*
D14*
G04 #@! TO.C,D6*
X77650000Y-96720000D02*
X77650000Y-93780000D01*
X77650000Y-93780000D02*
X72210000Y-93780000D01*
X72210000Y-96720000D02*
X77650000Y-96720000D01*
X72210000Y-93780000D02*
X72210000Y-96720000D01*
X76630000Y-96720000D02*
X76630000Y-93780000D01*
X76750000Y-96720000D02*
X76750000Y-93780000D01*
X78670000Y-95250000D02*
X77650000Y-95250000D01*
X71190000Y-95250000D02*
X72210000Y-95250000D01*
X76870000Y-96720000D02*
X76870000Y-93780000D01*
G04 #@! TO.C,C2*
X65970000Y-39271651D02*
X67330000Y-39271651D01*
X69410000Y-39991651D02*
X71526000Y-39991651D01*
X66917000Y-38751651D02*
X69823000Y-38751651D01*
X69410000Y-40591651D02*
X71932000Y-40591651D01*
X64333000Y-41992651D02*
X72407000Y-41992651D01*
X64290000Y-42512651D02*
X72450000Y-42512651D01*
X69410000Y-40231651D02*
X71708000Y-40231651D01*
X69410000Y-41111651D02*
X72175000Y-41111651D01*
X69410000Y-40791651D02*
X72036000Y-40791651D01*
X66204000Y-39111651D02*
X67330000Y-39111651D01*
X66142000Y-39151651D02*
X67330000Y-39151651D01*
X64318000Y-42112651D02*
X72422000Y-42112651D01*
X69410000Y-40511651D02*
X71887000Y-40511651D01*
X64423000Y-41551651D02*
X72317000Y-41551651D01*
X64394000Y-41671651D02*
X72346000Y-41671651D01*
X67602000Y-38551651D02*
X69138000Y-38551651D01*
X69410000Y-39631651D02*
X71196000Y-39631651D01*
X65673000Y-39511651D02*
X67330000Y-39511651D01*
X65544000Y-39631651D02*
X67330000Y-39631651D01*
X64313000Y-42152651D02*
X72427000Y-42152651D01*
X64565000Y-41111651D02*
X67330000Y-41111651D01*
X64291000Y-42472651D02*
X72449000Y-42472651D01*
X64666000Y-40871651D02*
X67330000Y-40871651D01*
X64445000Y-41471651D02*
X72295000Y-41471651D01*
X64296000Y-42352651D02*
X72444000Y-42352651D01*
X64520000Y-41231651D02*
X72220000Y-41231651D01*
X69410000Y-40111651D02*
X71620000Y-40111651D01*
X64743000Y-40711651D02*
X67330000Y-40711651D01*
X65032000Y-40231651D02*
X67330000Y-40231651D01*
X69410000Y-40271651D02*
X71735000Y-40271651D01*
X64376000Y-41751651D02*
X72364000Y-41751651D01*
X69410000Y-39911651D02*
X71460000Y-39911651D01*
X64596000Y-41031651D02*
X67330000Y-41031651D01*
X65150000Y-40071651D02*
X67330000Y-40071651D01*
X69410000Y-41071651D02*
X72160000Y-41071651D01*
X64580000Y-41071651D02*
X67330000Y-41071651D01*
X69410000Y-39271651D02*
X70770000Y-39271651D01*
X64290000Y-42592651D02*
X72450000Y-42592651D01*
X69410000Y-39151651D02*
X70598000Y-39151651D01*
X66336000Y-39031651D02*
X70404000Y-39031651D01*
X66725000Y-38831651D02*
X70015000Y-38831651D01*
X67422000Y-38591651D02*
X69318000Y-38591651D01*
X69410000Y-39391651D02*
X70926000Y-39391651D01*
X67141000Y-38671651D02*
X69599000Y-38671651D01*
X65387000Y-39791651D02*
X67330000Y-39791651D01*
X64413000Y-41591651D02*
X72327000Y-41591651D01*
X69410000Y-39751651D02*
X71315000Y-39751651D01*
X66480000Y-38951651D02*
X70260000Y-38951651D01*
X64952000Y-40351651D02*
X67330000Y-40351651D01*
X64322000Y-42072651D02*
X72418000Y-42072651D01*
X64353000Y-41871651D02*
X72387000Y-41871651D01*
X65120000Y-40111651D02*
X67330000Y-40111651D01*
X69410000Y-40671651D02*
X71976000Y-40671651D01*
X69410000Y-39471651D02*
X71021000Y-39471651D01*
X64403000Y-41631651D02*
X72337000Y-41631651D01*
X69410000Y-40871651D02*
X72074000Y-40871651D01*
X65280000Y-39911651D02*
X67330000Y-39911651D01*
X65629000Y-39551651D02*
X67330000Y-39551651D01*
X64299000Y-42312651D02*
X72441000Y-42312651D01*
X69410000Y-39311651D02*
X70824000Y-39311651D01*
X64328000Y-42032651D02*
X72412000Y-42032651D01*
X66055000Y-47002349D02*
X66055000Y-46202349D01*
X67837000Y-38511651D02*
X68903000Y-38511651D01*
X64549000Y-41151651D02*
X72191000Y-41151651D01*
X69410000Y-40031651D02*
X71559000Y-40031651D01*
X69410000Y-39191651D02*
X70657000Y-39191651D01*
X69410000Y-40551651D02*
X71910000Y-40551651D01*
X67024000Y-38711651D02*
X69716000Y-38711651D01*
X64290000Y-42552651D02*
X72450000Y-42552651D01*
X69410000Y-39551651D02*
X71111000Y-39551651D01*
X64368000Y-41791651D02*
X72372000Y-41791651D01*
X64978000Y-40311651D02*
X67330000Y-40311651D01*
X64493000Y-41311651D02*
X72247000Y-41311651D01*
X69410000Y-39431651D02*
X70974000Y-39431651D01*
X66639000Y-38871651D02*
X70101000Y-38871651D01*
X64853000Y-40511651D02*
X67330000Y-40511651D01*
X64302000Y-42272651D02*
X72438000Y-42272651D01*
X69410000Y-39231651D02*
X70715000Y-39231651D01*
X65181000Y-40031651D02*
X67330000Y-40031651D01*
X69410000Y-40831651D02*
X72056000Y-40831651D01*
X69410000Y-40991651D02*
X72127000Y-40991651D01*
X69410000Y-41031651D02*
X72144000Y-41031651D01*
X64481000Y-41351651D02*
X72259000Y-41351651D01*
X69410000Y-39951651D02*
X71494000Y-39951651D01*
X65214000Y-39991651D02*
X67330000Y-39991651D01*
X64468000Y-41391651D02*
X72272000Y-41391651D01*
X65246000Y-39951651D02*
X67330000Y-39951651D01*
X65865000Y-39351651D02*
X67330000Y-39351651D01*
X64877000Y-40471651D02*
X67330000Y-40471651D01*
X64830000Y-40551651D02*
X67330000Y-40551651D01*
X65425000Y-39751651D02*
X67330000Y-39751651D01*
X65503000Y-39671651D02*
X67330000Y-39671651D01*
X69410000Y-39831651D02*
X71389000Y-39831651D01*
X66083000Y-39191651D02*
X67330000Y-39191651D01*
X64346000Y-41912651D02*
X72394000Y-41912651D01*
X69410000Y-39511651D02*
X71067000Y-39511651D01*
X64808000Y-40591651D02*
X67330000Y-40591651D01*
X65814000Y-39391651D02*
X67330000Y-39391651D01*
X65090000Y-40151651D02*
X67330000Y-40151651D01*
X66557000Y-38911651D02*
X70183000Y-38911651D01*
X65315000Y-39871651D02*
X67330000Y-39871651D01*
X64723000Y-40751651D02*
X67330000Y-40751651D01*
X67272000Y-38631651D02*
X69468000Y-38631651D01*
X66268000Y-39071651D02*
X67330000Y-39071651D01*
X65766000Y-39431651D02*
X67330000Y-39431651D01*
X64704000Y-40791651D02*
X67330000Y-40791651D01*
X64305000Y-42232651D02*
X72435000Y-42232651D01*
X64340000Y-41952651D02*
X72400000Y-41952651D01*
X65586000Y-39591651D02*
X67330000Y-39591651D01*
X69410000Y-39871651D02*
X71425000Y-39871651D01*
X69410000Y-40151651D02*
X71650000Y-40151651D01*
X69410000Y-40711651D02*
X71997000Y-40711651D01*
X69410000Y-40191651D02*
X71679000Y-40191651D01*
X64684000Y-40831651D02*
X67330000Y-40831651D01*
X64293000Y-42432651D02*
X72447000Y-42432651D01*
X64926000Y-40391651D02*
X67330000Y-40391651D01*
X66406000Y-38991651D02*
X70334000Y-38991651D01*
X64309000Y-42192651D02*
X72431000Y-42192651D01*
X65005000Y-40271651D02*
X67330000Y-40271651D01*
X66818000Y-38791651D02*
X69922000Y-38791651D01*
X64535000Y-41191651D02*
X72205000Y-41191651D01*
X69410000Y-40311651D02*
X71762000Y-40311651D01*
X69410000Y-39351651D02*
X70875000Y-39351651D01*
X69410000Y-40391651D02*
X71814000Y-40391651D01*
X66025000Y-39231651D02*
X67330000Y-39231651D01*
X65655000Y-46602349D02*
X66455000Y-46602349D01*
X64507000Y-41271651D02*
X72233000Y-41271651D01*
X64764000Y-40671651D02*
X67330000Y-40671651D01*
X69410000Y-40911651D02*
X72092000Y-40911651D01*
X69410000Y-39711651D02*
X71277000Y-39711651D01*
X65061000Y-40191651D02*
X67330000Y-40191651D01*
X64786000Y-40631651D02*
X67330000Y-40631651D01*
X64294000Y-42392651D02*
X72446000Y-42392651D01*
X69410000Y-40071651D02*
X71590000Y-40071651D01*
X65463000Y-39711651D02*
X67330000Y-39711651D01*
X69410000Y-40471651D02*
X71863000Y-40471651D01*
X64456000Y-41431651D02*
X72284000Y-41431651D01*
X65351000Y-39831651D02*
X67330000Y-39831651D01*
X69410000Y-39791651D02*
X71353000Y-39791651D01*
X64648000Y-40911651D02*
X67330000Y-40911651D01*
X69410000Y-40631651D02*
X71954000Y-40631651D01*
X69410000Y-39071651D02*
X70472000Y-39071651D01*
X69410000Y-40431651D02*
X71839000Y-40431651D01*
X65916000Y-39311651D02*
X67330000Y-39311651D01*
X69410000Y-40751651D02*
X72017000Y-40751651D01*
X64360000Y-41831651D02*
X72380000Y-41831651D01*
X69410000Y-39111651D02*
X70536000Y-39111651D01*
X64630000Y-40951651D02*
X67330000Y-40951651D01*
X64385000Y-41711651D02*
X72355000Y-41711651D01*
X64901000Y-40431651D02*
X67330000Y-40431651D01*
X64613000Y-40991651D02*
X67330000Y-40991651D01*
X69410000Y-40351651D02*
X71788000Y-40351651D01*
X65719000Y-39471651D02*
X67330000Y-39471651D01*
X69410000Y-39591651D02*
X71154000Y-39591651D01*
X64434000Y-41511651D02*
X72306000Y-41511651D01*
X69410000Y-39671651D02*
X71237000Y-39671651D01*
X69410000Y-40951651D02*
X72110000Y-40951651D01*
X72490000Y-42592651D02*
G75*
G03*
X72490000Y-42592651I-4120000J0D01*
G01*
G04 #@! TO.C,D18*
X153685000Y-44416000D02*
X153685000Y-44260000D01*
X153685000Y-42100000D02*
X153685000Y-41944000D01*
X153685000Y-41944484D02*
G75*
G03*
X150452665Y-42101392I-1560000J-1235516D01*
G01*
X150452665Y-44258608D02*
G75*
G03*
X153685000Y-44415516I1672335J1078608D01*
G01*
X153165961Y-42100000D02*
G75*
G03*
X151083870Y-42100163I-1040961J-1080000D01*
G01*
X151083870Y-44259837D02*
G75*
G03*
X153165961Y-44260000I1041130J1079837D01*
G01*
G04 #@! TO.C,L1*
X84640500Y-41456260D02*
X84640500Y-38169500D01*
X70657800Y-43059000D02*
X70657800Y-43821000D01*
X84640500Y-38169500D02*
X74099500Y-38169500D01*
X74099500Y-45423740D02*
X74099500Y-48710500D01*
X74099500Y-38169500D02*
X74099500Y-41456260D01*
X74099500Y-48710500D02*
X84640500Y-48710500D01*
X84640500Y-48710500D02*
X84640500Y-45423740D01*
X71038800Y-43440000D02*
X70276800Y-43440000D01*
G04 #@! TO.C,D3*
X103420000Y-109420000D02*
X103420000Y-106480000D01*
X105340000Y-107950000D02*
X104320000Y-107950000D01*
X98880000Y-106480000D02*
X98880000Y-109420000D01*
X97860000Y-107950000D02*
X98880000Y-107950000D01*
X98880000Y-109420000D02*
X104320000Y-109420000D01*
X104320000Y-106480000D02*
X98880000Y-106480000D01*
X103300000Y-109420000D02*
X103300000Y-106480000D01*
X103540000Y-109420000D02*
X103540000Y-106480000D01*
X104320000Y-109420000D02*
X104320000Y-106480000D01*
G04 #@! TO.C,J4*
X115505000Y-121194000D02*
X125785000Y-121194000D01*
X124255000Y-122220000D02*
X124220000Y-122256000D01*
X115505000Y-118234000D02*
X125785000Y-118234000D01*
X115505000Y-118234000D02*
X115505000Y-128155000D01*
X115505000Y-126095000D02*
X125785000Y-126095000D01*
X121958000Y-124518000D02*
X121911000Y-124564000D01*
X115265000Y-127655000D02*
X115265000Y-128395000D01*
X115505000Y-127595000D02*
X125785000Y-127595000D01*
X115505000Y-128155000D02*
X125785000Y-128155000D01*
X124460000Y-122426000D02*
X124413000Y-122472000D01*
X125785000Y-118234000D02*
X125785000Y-128155000D01*
X122151000Y-124734000D02*
X122116000Y-124769000D01*
X115265000Y-128395000D02*
X115765000Y-128395000D01*
X119640001Y-124179000D02*
G75*
G03*
X119640427Y-122811958I-1535001J684000D01*
G01*
X118105000Y-125175000D02*
G75*
G03*
X118788318Y-125029756I0J1680000D01*
G01*
X116570000Y-122811000D02*
G75*
G03*
X116569573Y-124178042I1534993J-684001D01*
G01*
X117421000Y-125030000D02*
G75*
G03*
X118133805Y-125175253I683999J1535001D01*
G01*
X118789000Y-121960000D02*
G75*
G03*
X117421958Y-121959573I-684001J-1534993D01*
G01*
X124865000Y-123495000D02*
G75*
G03*
X124865000Y-123495000I-1680000J0D01*
G01*
G04 #@! TO.C,D17*
X93165000Y-41220000D02*
X93165000Y-46660000D01*
X101240000Y-46660000D02*
X101240000Y-41220000D01*
X91500000Y-46660000D02*
X101240000Y-46660000D01*
X91500000Y-41220000D02*
X91500000Y-46660000D01*
X93045000Y-41220000D02*
X93045000Y-46660000D01*
X90590000Y-43940000D02*
X91500000Y-43940000D01*
X102150000Y-43940000D02*
X101240000Y-43940000D01*
X101240000Y-41220000D02*
X91500000Y-41220000D01*
X92925000Y-41220000D02*
X92925000Y-46660000D01*
G04 #@! TO.C,C3*
X89008349Y-97723000D02*
X89008349Y-105477000D01*
X88568349Y-97606000D02*
X88568349Y-105594000D01*
X90928349Y-102640000D02*
X90928349Y-104156000D01*
X89208349Y-97795000D02*
X89208349Y-100560000D01*
X87927349Y-97524000D02*
X87927349Y-105676000D01*
X88007349Y-97529000D02*
X88007349Y-105671000D01*
X90328349Y-98444000D02*
X90328349Y-100560000D01*
X90448349Y-98545000D02*
X90448349Y-100560000D01*
X89768349Y-98060000D02*
X89768349Y-100560000D01*
X90368349Y-102640000D02*
X90368349Y-104724000D01*
X87967349Y-97526000D02*
X87967349Y-105674000D01*
X88087349Y-97535000D02*
X88087349Y-105665000D01*
X91688349Y-100502000D02*
X91688349Y-102698000D01*
X90488349Y-98581000D02*
X90488349Y-100560000D01*
X90328349Y-102640000D02*
X90328349Y-104756000D01*
X89488349Y-97914000D02*
X89488349Y-100560000D01*
X91568349Y-100147000D02*
X91568349Y-103053000D01*
X91328349Y-99636000D02*
X91328349Y-103564000D01*
X90968349Y-102640000D02*
X90968349Y-104105000D01*
X90888349Y-102640000D02*
X90888349Y-104204000D01*
X89048349Y-97737000D02*
X89048349Y-105463000D01*
X88608349Y-97615000D02*
X88608349Y-105585000D01*
X83717651Y-98885000D02*
X83717651Y-99685000D01*
X89448349Y-97896000D02*
X89448349Y-100560000D01*
X89368349Y-97860000D02*
X89368349Y-100560000D01*
X89368349Y-102640000D02*
X89368349Y-105340000D01*
X90808349Y-98903000D02*
X90808349Y-100560000D01*
X87807349Y-97520000D02*
X87807349Y-105680000D01*
X90008349Y-98208000D02*
X90008349Y-100560000D01*
X89608349Y-102640000D02*
X89608349Y-105227000D01*
X89168349Y-97779000D02*
X89168349Y-105421000D01*
X90688349Y-98774000D02*
X90688349Y-100560000D01*
X90968349Y-99095000D02*
X90968349Y-100560000D01*
X90728349Y-98816000D02*
X90728349Y-100560000D01*
X89928349Y-102640000D02*
X89928349Y-105044000D01*
X88728349Y-97643000D02*
X88728349Y-105557000D01*
X88407349Y-97576000D02*
X88407349Y-105624000D01*
X89248349Y-97810000D02*
X89248349Y-100560000D01*
X90088349Y-102640000D02*
X90088349Y-104938000D01*
X90128349Y-98291000D02*
X90128349Y-100560000D01*
X91408349Y-99787000D02*
X91408349Y-103413000D01*
X91768349Y-100832000D02*
X91768349Y-102368000D01*
X89328349Y-102640000D02*
X89328349Y-105357000D01*
X91168349Y-99372000D02*
X91168349Y-100560000D01*
X88688349Y-97633000D02*
X88688349Y-105567000D01*
X89888349Y-98131000D02*
X89888349Y-100560000D01*
X88808349Y-97664000D02*
X88808349Y-105536000D01*
X89688349Y-98016000D02*
X89688349Y-100560000D01*
X83317651Y-99285000D02*
X84117651Y-99285000D01*
X87727349Y-97520000D02*
X87727349Y-105680000D01*
X91008349Y-102640000D02*
X91008349Y-104054000D01*
X90408349Y-102640000D02*
X90408349Y-104690000D01*
X90448349Y-102640000D02*
X90448349Y-104655000D01*
X89488349Y-102640000D02*
X89488349Y-105286000D01*
X90768349Y-98859000D02*
X90768349Y-100560000D01*
X89088349Y-97750000D02*
X89088349Y-105450000D01*
X91288349Y-99566000D02*
X91288349Y-103634000D01*
X88167349Y-97543000D02*
X88167349Y-105657000D01*
X88848349Y-97675000D02*
X88848349Y-105525000D01*
X90048349Y-102640000D02*
X90048349Y-104965000D01*
X89568349Y-102640000D02*
X89568349Y-105247000D01*
X89208349Y-102640000D02*
X89208349Y-105405000D01*
X89248349Y-102640000D02*
X89248349Y-105390000D01*
X91208349Y-102640000D02*
X91208349Y-103766000D01*
X89648349Y-102640000D02*
X89648349Y-105206000D01*
X89928349Y-98156000D02*
X89928349Y-100560000D01*
X91128349Y-102640000D02*
X91128349Y-103887000D01*
X87887349Y-97523000D02*
X87887349Y-105677000D01*
X89808349Y-98083000D02*
X89808349Y-100560000D01*
X89528349Y-97934000D02*
X89528349Y-100560000D01*
X91808349Y-101067000D02*
X91808349Y-102133000D01*
X90648349Y-102640000D02*
X90648349Y-104467000D01*
X89408349Y-102640000D02*
X89408349Y-105322000D01*
X90688349Y-102640000D02*
X90688349Y-104426000D01*
X89448349Y-102640000D02*
X89448349Y-105304000D01*
X91088349Y-102640000D02*
X91088349Y-103945000D01*
X90128349Y-102640000D02*
X90128349Y-104909000D01*
X91368349Y-99710000D02*
X91368349Y-103490000D01*
X88047349Y-97532000D02*
X88047349Y-105668000D01*
X90168349Y-98320000D02*
X90168349Y-100560000D01*
X90568349Y-98655000D02*
X90568349Y-100560000D01*
X89768349Y-102640000D02*
X89768349Y-105140000D01*
X89968349Y-102640000D02*
X89968349Y-105018000D01*
X88367349Y-97570000D02*
X88367349Y-105630000D01*
X91048349Y-102640000D02*
X91048349Y-104000000D01*
X89408349Y-97878000D02*
X89408349Y-100560000D01*
X90808349Y-102640000D02*
X90808349Y-104297000D01*
X89848349Y-98107000D02*
X89848349Y-100560000D01*
X89288349Y-102640000D02*
X89288349Y-105374000D01*
X87847349Y-97521000D02*
X87847349Y-105679000D01*
X89128349Y-97765000D02*
X89128349Y-105435000D01*
X89688349Y-102640000D02*
X89688349Y-105184000D01*
X90368349Y-98476000D02*
X90368349Y-100560000D01*
X91608349Y-100254000D02*
X91608349Y-102946000D01*
X90648349Y-98733000D02*
X90648349Y-100560000D01*
X90488349Y-102640000D02*
X90488349Y-104619000D01*
X88448349Y-97583000D02*
X88448349Y-105617000D01*
X88247349Y-97552000D02*
X88247349Y-105648000D01*
X91488349Y-99955000D02*
X91488349Y-103245000D01*
X90048349Y-98235000D02*
X90048349Y-100560000D01*
X90528349Y-102640000D02*
X90528349Y-104583000D01*
X88888349Y-97686000D02*
X88888349Y-105514000D01*
X90088349Y-98262000D02*
X90088349Y-100560000D01*
X91088349Y-99255000D02*
X91088349Y-100560000D01*
X91208349Y-99434000D02*
X91208349Y-100560000D01*
X90208349Y-98350000D02*
X90208349Y-100560000D01*
X91528349Y-100048000D02*
X91528349Y-103152000D01*
X88648349Y-97624000D02*
X88648349Y-105576000D01*
X91008349Y-99146000D02*
X91008349Y-100560000D01*
X90008349Y-102640000D02*
X90008349Y-104992000D01*
X91648349Y-100371000D02*
X91648349Y-102829000D01*
X88768349Y-97653000D02*
X88768349Y-105547000D01*
X91128349Y-99313000D02*
X91128349Y-100560000D01*
X91248349Y-99498000D02*
X91248349Y-100560000D01*
X90928349Y-99044000D02*
X90928349Y-100560000D01*
X89528349Y-102640000D02*
X89528349Y-105266000D01*
X90608349Y-98693000D02*
X90608349Y-100560000D01*
X88327349Y-97563000D02*
X88327349Y-105637000D01*
X89728349Y-102640000D02*
X89728349Y-105162000D01*
X90208349Y-102640000D02*
X90208349Y-104850000D01*
X91728349Y-100652000D02*
X91728349Y-102548000D01*
X90248349Y-98380000D02*
X90248349Y-100560000D01*
X90408349Y-98510000D02*
X90408349Y-100560000D01*
X88528349Y-97598000D02*
X88528349Y-105602000D01*
X90288349Y-98411000D02*
X90288349Y-100560000D01*
X90248349Y-102640000D02*
X90248349Y-104820000D01*
X90848349Y-102640000D02*
X90848349Y-104251000D01*
X88127349Y-97539000D02*
X88127349Y-105661000D01*
X90528349Y-98617000D02*
X90528349Y-100560000D01*
X88488349Y-97590000D02*
X88488349Y-105610000D01*
X90568349Y-102640000D02*
X90568349Y-104545000D01*
X89328349Y-97843000D02*
X89328349Y-100560000D01*
X90288349Y-102640000D02*
X90288349Y-104789000D01*
X91048349Y-99200000D02*
X91048349Y-100560000D01*
X89648349Y-97994000D02*
X89648349Y-100560000D01*
X90728349Y-102640000D02*
X90728349Y-104384000D01*
X90168349Y-102640000D02*
X90168349Y-104880000D01*
X89288349Y-97826000D02*
X89288349Y-100560000D01*
X90848349Y-98949000D02*
X90848349Y-100560000D01*
X90888349Y-98996000D02*
X90888349Y-100560000D01*
X90768349Y-102640000D02*
X90768349Y-104341000D01*
X87767349Y-97520000D02*
X87767349Y-105680000D01*
X88287349Y-97558000D02*
X88287349Y-105642000D01*
X89808349Y-102640000D02*
X89808349Y-105117000D01*
X89848349Y-102640000D02*
X89848349Y-105093000D01*
X88207349Y-97548000D02*
X88207349Y-105652000D01*
X89568349Y-97953000D02*
X89568349Y-100560000D01*
X88968349Y-97711000D02*
X88968349Y-105489000D01*
X88928349Y-97698000D02*
X88928349Y-105502000D01*
X91448349Y-99869000D02*
X91448349Y-103331000D01*
X91248349Y-102640000D02*
X91248349Y-103702000D01*
X89728349Y-98038000D02*
X89728349Y-100560000D01*
X89888349Y-102640000D02*
X89888349Y-105069000D01*
X90608349Y-102640000D02*
X90608349Y-104507000D01*
X91168349Y-102640000D02*
X91168349Y-103828000D01*
X89968349Y-98182000D02*
X89968349Y-100560000D01*
X89608349Y-97973000D02*
X89608349Y-100560000D01*
X91847349Y-101600000D02*
G75*
G03*
X91847349Y-101600000I-4120000J0D01*
G01*
G04 #@! TO.C,D4*
X104320000Y-115770000D02*
X104320000Y-112830000D01*
X97860000Y-114300000D02*
X98880000Y-114300000D01*
X98880000Y-112830000D02*
X98880000Y-115770000D01*
X104320000Y-112830000D02*
X98880000Y-112830000D01*
X99780000Y-112830000D02*
X99780000Y-115770000D01*
X98880000Y-115770000D02*
X104320000Y-115770000D01*
X99900000Y-112830000D02*
X99900000Y-115770000D01*
X105340000Y-114300000D02*
X104320000Y-114300000D01*
X99660000Y-112830000D02*
X99660000Y-115770000D01*
G04 #@! TO.C,J5*
X143445000Y-128155000D02*
X153725000Y-128155000D01*
X143205000Y-127655000D02*
X143205000Y-128395000D01*
X152195000Y-122220000D02*
X152160000Y-122256000D01*
X153725000Y-118234000D02*
X153725000Y-128155000D01*
X143445000Y-118234000D02*
X143445000Y-128155000D01*
X149898000Y-124518000D02*
X149851000Y-124564000D01*
X143445000Y-118234000D02*
X153725000Y-118234000D01*
X143205000Y-128395000D02*
X143705000Y-128395000D01*
X143445000Y-126095000D02*
X153725000Y-126095000D01*
X150091000Y-124734000D02*
X150056000Y-124769000D01*
X152400000Y-122426000D02*
X152353000Y-122472000D01*
X143445000Y-121194000D02*
X153725000Y-121194000D01*
X143445000Y-127595000D02*
X153725000Y-127595000D01*
X146729000Y-121960000D02*
G75*
G03*
X145361958Y-121959573I-684001J-1534993D01*
G01*
X147580001Y-124179000D02*
G75*
G03*
X147580427Y-122811958I-1535001J684000D01*
G01*
X144510000Y-122811000D02*
G75*
G03*
X144509573Y-124178042I1534993J-684001D01*
G01*
X145361000Y-125030000D02*
G75*
G03*
X146073805Y-125175253I683999J1535001D01*
G01*
X146045000Y-125175000D02*
G75*
G03*
X146728318Y-125029756I0J1680000D01*
G01*
X152805000Y-123495000D02*
G75*
G03*
X152805000Y-123495000I-1680000J0D01*
G01*
G04 #@! TO.C,C4*
X138158349Y-105180000D02*
X138158349Y-106368000D01*
X136718349Y-105180000D02*
X136718349Y-107702000D01*
X137798349Y-105180000D02*
X137798349Y-106837000D01*
X137438349Y-105180000D02*
X137438349Y-107195000D01*
X137278349Y-100951000D02*
X137278349Y-103100000D01*
X137638349Y-101273000D02*
X137638349Y-103100000D01*
X137238349Y-105180000D02*
X137238349Y-107360000D01*
X138238349Y-105180000D02*
X138238349Y-106242000D01*
X136598349Y-100513000D02*
X136598349Y-103100000D01*
X135718349Y-100183000D02*
X135718349Y-108097000D01*
X135638349Y-100164000D02*
X135638349Y-108116000D01*
X136518349Y-100474000D02*
X136518349Y-103100000D01*
X135237349Y-100092000D02*
X135237349Y-108188000D01*
X138158349Y-101912000D02*
X138158349Y-103100000D01*
X137758349Y-105180000D02*
X137758349Y-106881000D01*
X134717349Y-100060000D02*
X134717349Y-108220000D01*
X137678349Y-101314000D02*
X137678349Y-103100000D01*
X135197349Y-100088000D02*
X135197349Y-108192000D01*
X137478349Y-105180000D02*
X137478349Y-107159000D01*
X138678349Y-103042000D02*
X138678349Y-105238000D01*
X137958349Y-105180000D02*
X137958349Y-106645000D01*
X136518349Y-105180000D02*
X136518349Y-107806000D01*
X137038349Y-100775000D02*
X137038349Y-103100000D01*
X138798349Y-103607000D02*
X138798349Y-104673000D01*
X135998349Y-100263000D02*
X135998349Y-108017000D01*
X137198349Y-100890000D02*
X137198349Y-103100000D01*
X136278349Y-105180000D02*
X136278349Y-107914000D01*
X137398349Y-101050000D02*
X137398349Y-103100000D01*
X137038349Y-105180000D02*
X137038349Y-107505000D01*
X137798349Y-101443000D02*
X137798349Y-103100000D01*
X137238349Y-100920000D02*
X137238349Y-103100000D01*
X135558349Y-100146000D02*
X135558349Y-108134000D01*
X138758349Y-103372000D02*
X138758349Y-104908000D01*
X136358349Y-100400000D02*
X136358349Y-103100000D01*
X136758349Y-100600000D02*
X136758349Y-103100000D01*
X137438349Y-101085000D02*
X137438349Y-103100000D01*
X135277349Y-100098000D02*
X135277349Y-108182000D01*
X138438349Y-102409000D02*
X138438349Y-105871000D01*
X137358349Y-105180000D02*
X137358349Y-107264000D01*
X136438349Y-105180000D02*
X136438349Y-107844000D01*
X136038349Y-100277000D02*
X136038349Y-108003000D01*
X136758349Y-105180000D02*
X136758349Y-107680000D01*
X136958349Y-105180000D02*
X136958349Y-107558000D01*
X135958349Y-100251000D02*
X135958349Y-108029000D01*
X137398349Y-105180000D02*
X137398349Y-107230000D01*
X138638349Y-102911000D02*
X138638349Y-105369000D01*
X136878349Y-105180000D02*
X136878349Y-107609000D01*
X137518349Y-101157000D02*
X137518349Y-103100000D01*
X137958349Y-101635000D02*
X137958349Y-103100000D01*
X137918349Y-105180000D02*
X137918349Y-106696000D01*
X136558349Y-105180000D02*
X136558349Y-107787000D01*
X135878349Y-100226000D02*
X135878349Y-108054000D01*
X137078349Y-105180000D02*
X137078349Y-107478000D01*
X137598349Y-101233000D02*
X137598349Y-103100000D01*
X136678349Y-105180000D02*
X136678349Y-107724000D01*
X138478349Y-102495000D02*
X138478349Y-105785000D01*
X136478349Y-105180000D02*
X136478349Y-107826000D01*
X137118349Y-105180000D02*
X137118349Y-107449000D01*
X136158349Y-100319000D02*
X136158349Y-107961000D01*
X136198349Y-105180000D02*
X136198349Y-107945000D01*
X135918349Y-100238000D02*
X135918349Y-108042000D01*
X138278349Y-102106000D02*
X138278349Y-106174000D01*
X136998349Y-100748000D02*
X136998349Y-103100000D01*
X136718349Y-100578000D02*
X136718349Y-103100000D01*
X136558349Y-100493000D02*
X136558349Y-103100000D01*
X135438349Y-100123000D02*
X135438349Y-108157000D01*
X136638349Y-105180000D02*
X136638349Y-107746000D01*
X138238349Y-102038000D02*
X138238349Y-103100000D01*
X134757349Y-100060000D02*
X134757349Y-108220000D01*
X135397349Y-100116000D02*
X135397349Y-108164000D01*
X138198349Y-101974000D02*
X138198349Y-103100000D01*
X137118349Y-100831000D02*
X137118349Y-103100000D01*
X134837349Y-100061000D02*
X134837349Y-108219000D01*
X137718349Y-101356000D02*
X137718349Y-103100000D01*
X137318349Y-105180000D02*
X137318349Y-107296000D01*
X137678349Y-105180000D02*
X137678349Y-106966000D01*
X136838349Y-100647000D02*
X136838349Y-103100000D01*
X138198349Y-105180000D02*
X138198349Y-106306000D01*
X137158349Y-105180000D02*
X137158349Y-107420000D01*
X137558349Y-105180000D02*
X137558349Y-107085000D01*
X138318349Y-102176000D02*
X138318349Y-106104000D01*
X135037349Y-100072000D02*
X135037349Y-108208000D01*
X134997349Y-100069000D02*
X134997349Y-108211000D01*
X135357349Y-100110000D02*
X135357349Y-108170000D01*
X134877349Y-100063000D02*
X134877349Y-108217000D01*
X138078349Y-101795000D02*
X138078349Y-103100000D01*
X136238349Y-100350000D02*
X136238349Y-103100000D01*
X130707651Y-101425000D02*
X130707651Y-102225000D01*
X138518349Y-102588000D02*
X138518349Y-105692000D01*
X135598349Y-100155000D02*
X135598349Y-108125000D01*
X136118349Y-100305000D02*
X136118349Y-107975000D01*
X134957349Y-100066000D02*
X134957349Y-108214000D01*
X135838349Y-100215000D02*
X135838349Y-108065000D01*
X137638349Y-105180000D02*
X137638349Y-107007000D01*
X138118349Y-105180000D02*
X138118349Y-106427000D01*
X137718349Y-105180000D02*
X137718349Y-106924000D01*
X135758349Y-100193000D02*
X135758349Y-108087000D01*
X136198349Y-100335000D02*
X136198349Y-103100000D01*
X136598349Y-105180000D02*
X136598349Y-107767000D01*
X136918349Y-100696000D02*
X136918349Y-103100000D01*
X137278349Y-105180000D02*
X137278349Y-107329000D01*
X136878349Y-100671000D02*
X136878349Y-103100000D01*
X137318349Y-100984000D02*
X137318349Y-103100000D01*
X138398349Y-102327000D02*
X138398349Y-105953000D01*
X136238349Y-105180000D02*
X136238349Y-107930000D01*
X134797349Y-100060000D02*
X134797349Y-108220000D01*
X137198349Y-105180000D02*
X137198349Y-107390000D01*
X130307651Y-101825000D02*
X131107651Y-101825000D01*
X138558349Y-102687000D02*
X138558349Y-105593000D01*
X136318349Y-100383000D02*
X136318349Y-103100000D01*
X134917349Y-100064000D02*
X134917349Y-108216000D01*
X137078349Y-100802000D02*
X137078349Y-103100000D01*
X136438349Y-100436000D02*
X136438349Y-103100000D01*
X135678349Y-100173000D02*
X135678349Y-108107000D01*
X136838349Y-105180000D02*
X136838349Y-107633000D01*
X135117349Y-100079000D02*
X135117349Y-108201000D01*
X138078349Y-105180000D02*
X138078349Y-106485000D01*
X137158349Y-100860000D02*
X137158349Y-103100000D01*
X136798349Y-100623000D02*
X136798349Y-103100000D01*
X135478349Y-100130000D02*
X135478349Y-108150000D01*
X135077349Y-100075000D02*
X135077349Y-108205000D01*
X135518349Y-100138000D02*
X135518349Y-108142000D01*
X136678349Y-100556000D02*
X136678349Y-103100000D01*
X136998349Y-105180000D02*
X136998349Y-107532000D01*
X136638349Y-100534000D02*
X136638349Y-103100000D01*
X137838349Y-101489000D02*
X137838349Y-103100000D01*
X135317349Y-100103000D02*
X135317349Y-108177000D01*
X137558349Y-101195000D02*
X137558349Y-103100000D01*
X135798349Y-100204000D02*
X135798349Y-108076000D01*
X138718349Y-103192000D02*
X138718349Y-105088000D01*
X138038349Y-101740000D02*
X138038349Y-103100000D01*
X135157349Y-100083000D02*
X135157349Y-108197000D01*
X136078349Y-100290000D02*
X136078349Y-107990000D01*
X138038349Y-105180000D02*
X138038349Y-106540000D01*
X137598349Y-105180000D02*
X137598349Y-107047000D01*
X138358349Y-102250000D02*
X138358349Y-106030000D01*
X137918349Y-101584000D02*
X137918349Y-103100000D01*
X136798349Y-105180000D02*
X136798349Y-107657000D01*
X136318349Y-105180000D02*
X136318349Y-107897000D01*
X137478349Y-101121000D02*
X137478349Y-103100000D01*
X137518349Y-105180000D02*
X137518349Y-107123000D01*
X138598349Y-102794000D02*
X138598349Y-105486000D01*
X137998349Y-101686000D02*
X137998349Y-103100000D01*
X137838349Y-105180000D02*
X137838349Y-106791000D01*
X137998349Y-105180000D02*
X137998349Y-106594000D01*
X136478349Y-100454000D02*
X136478349Y-103100000D01*
X136398349Y-100418000D02*
X136398349Y-103100000D01*
X138118349Y-101853000D02*
X138118349Y-103100000D01*
X137758349Y-101399000D02*
X137758349Y-103100000D01*
X137878349Y-101536000D02*
X137878349Y-103100000D01*
X136358349Y-105180000D02*
X136358349Y-107880000D01*
X136918349Y-105180000D02*
X136918349Y-107584000D01*
X136278349Y-100366000D02*
X136278349Y-103100000D01*
X137358349Y-101016000D02*
X137358349Y-103100000D01*
X136398349Y-105180000D02*
X136398349Y-107862000D01*
X137878349Y-105180000D02*
X137878349Y-106744000D01*
X136958349Y-100722000D02*
X136958349Y-103100000D01*
X138837349Y-104140000D02*
G75*
G03*
X138837349Y-104140000I-4120000J0D01*
G01*
D15*
G04 #@! TO.C,REF\u002A\u002A*
X75670000Y-64360000D02*
X75670000Y-74890000D01*
X67415000Y-49490000D02*
X67415000Y-74890000D01*
X67415000Y-74890000D02*
X75670000Y-74890000D01*
X77840000Y-62970000D02*
X98900000Y-62970000D01*
X101070000Y-64360000D02*
X101070000Y-74890000D01*
X94285000Y-61400000D02*
X82455000Y-61400000D01*
X94285000Y-49490000D02*
X94285000Y-61400000D01*
X109325000Y-49490000D02*
X94285000Y-49490000D01*
X101070000Y-74890000D02*
X109325000Y-74890000D01*
X109325000Y-74890000D02*
X109325000Y-49490000D01*
X82455000Y-49490000D02*
X67415000Y-49490000D01*
X82455000Y-61400000D02*
X82455000Y-49490000D01*
D14*
G04 #@! TO.C,D12*
X146650000Y-112830000D02*
X146650000Y-115770000D01*
X151310000Y-115770000D02*
X151310000Y-112830000D01*
X145870000Y-112830000D02*
X145870000Y-115770000D01*
X146770000Y-112830000D02*
X146770000Y-115770000D01*
X151310000Y-112830000D02*
X145870000Y-112830000D01*
X152330000Y-114300000D02*
X151310000Y-114300000D01*
X146890000Y-112830000D02*
X146890000Y-115770000D01*
X145870000Y-115770000D02*
X151310000Y-115770000D01*
X144850000Y-114300000D02*
X145870000Y-114300000D01*
G04 #@! TD*
M02*
